<svg width="45" height="44" viewBox="0 0 45 44" fill="none" xmlns="http://www.w3.org/2000/svg">
<g clip-path="url(#clip0)">
<path d="M32.5719 14.5506C32.3648 14.0021 32.0346 13.5056 31.6054 13.0981C31.1886 12.6785 30.6812 12.3555 30.1199 12.1531C29.6646 11.9802 28.9807 11.7744 27.7211 11.7184C26.3584 11.6576 25.9499 11.6445 22.5001 11.6445C19.0501 11.6445 18.6415 11.6573 17.2792 11.718C16.0196 11.7744 15.3353 11.9802 14.8804 12.1531C14.3191 12.3555 13.8113 12.6785 13.3949 13.0981C12.9657 13.5056 12.6355 14.0018 12.4281 14.5506C12.2513 14.9958 12.0408 15.6648 11.9835 16.8965C11.9213 18.2285 11.908 18.628 11.908 22.0013C11.908 25.3744 11.9213 25.7739 11.9835 27.1062C12.0408 28.3379 12.2513 29.0066 12.4281 29.4517C12.6355 30.0006 12.9654 30.4967 13.3945 30.9043C13.8113 31.3239 14.3188 31.6468 14.8801 31.8492C15.3353 32.0225 16.0196 32.2282 17.2792 32.2843C18.6415 32.3451 19.0498 32.3578 22.4998 32.3578C25.9502 32.3578 26.3588 32.3451 27.7207 32.2843C28.9804 32.2282 29.6646 32.0225 30.1199 31.8492C31.2466 31.4243 32.1372 30.5535 32.5719 29.4517C32.7487 29.0066 32.9591 28.3379 33.0168 27.1062C33.0789 25.7739 33.092 25.3744 33.092 22.0013C33.092 18.628 33.0789 18.2285 33.0168 16.8965C32.9595 15.6648 32.749 14.9958 32.5719 14.5506ZM22.5001 28.4879C18.8359 28.4879 15.8654 25.5839 15.8654 22.001C15.8654 18.4182 18.8359 15.5141 22.5001 15.5141C26.1641 15.5141 29.1345 18.4182 29.1345 22.001C29.1345 25.5839 26.1641 28.4879 22.5001 28.4879ZM29.3968 16.7736C28.5406 16.7736 27.8464 16.0948 27.8464 15.2576C27.8464 14.4204 28.5406 13.7416 29.3968 13.7416C30.2531 13.7416 30.9473 14.4204 30.9473 15.2576C30.9469 16.0948 30.2531 16.7736 29.3968 16.7736Z" fill="#2C77E7"/>
<path d="M26.8062 22C26.8062 24.3257 24.878 26.2109 22.4995 26.2109C20.121 26.2109 18.1929 24.3257 18.1929 22C18.1929 19.6743 20.121 17.7891 22.4995 17.7891C24.878 17.7891 26.8062 19.6743 26.8062 22Z" fill="#2C77E7"/>
<path d="M41.7546 0H3.24543C1.45294 0 0 1.42065 0 3.17331V40.8267C0 42.5793 1.45294 44 3.24543 44H41.7546C43.5471 44 45 42.5793 45 40.8267V3.17331C45 1.42065 43.5471 0 41.7546 0ZM35.342 27.2083C35.2795 28.5531 35.0608 29.4712 34.7415 30.2748C34.0703 31.9718 32.6984 33.3132 30.9629 33.9695C30.1413 34.2817 29.202 34.4952 27.827 34.5566C26.4492 34.618 26.0091 34.6328 22.5003 34.6328C18.9912 34.6328 18.5514 34.618 17.1733 34.5566C15.7983 34.4952 14.859 34.2817 14.0374 33.9695C13.175 33.6523 12.3943 33.1551 11.7488 32.5122C11.0917 31.8815 10.5833 31.1178 10.2588 30.2748C9.93954 29.4715 9.72084 28.5531 9.65836 27.2086C9.59484 25.8611 9.58008 25.4308 9.58008 22C9.58008 18.5692 9.59484 18.1389 9.65801 16.7917C9.7205 15.4469 9.93885 14.5288 10.2581 13.7252C10.5826 12.8822 11.0914 12.1185 11.7488 11.4878C12.394 10.8449 13.175 10.3477 14.0371 10.0305C14.859 9.71832 15.798 9.50482 17.1733 9.44339C18.5511 9.38196 18.9912 9.36719 22.5 9.36719C26.0088 9.36719 26.4489 9.38196 27.8267 9.44373C29.202 9.50482 30.141 9.71832 30.9629 10.0302C31.825 10.3474 32.606 10.8449 33.2515 11.4878C33.9086 12.1189 34.4174 12.8822 34.7415 13.7252C35.0611 14.5288 35.2795 15.4469 35.3423 16.7917C35.4052 18.1389 35.4199 18.5692 35.4199 22C35.4199 25.4308 35.4052 25.8611 35.342 27.2083Z" fill="#2C77E7"/>
</g>
<defs>
<clipPath id="clip0">
<rect width="45" height="44" fill="white"/>
</clipPath>
</defs>
</svg>
