<svg width="24" height="24" viewBox="0 0 24 24" fill="none" xmlns="http://www.w3.org/2000/svg">
<circle cx="12" cy="12" r="11.5" fill="white" stroke="#263238"/>
<path d="M8 9.5H7V16.5C7 17.05 7.45 17.5 8 17.5H15V16.5H8V9.5ZM16 7.5H14.4C14.2 6.9 13.65 6.5 13 6.5C12.35 6.5 11.8 6.9 11.6 7.5H10C9.45 7.5 9 7.95 9 8.5V14.5C9 15.05 9.45 15.5 10 15.5H16C16.55 15.5 17 15.05 17 14.5V8.5C17 7.95 16.55 7.5 16 7.5ZM13 7.5C13.3 7.5 13.5 7.75 13.5 8C13.5 8.25 13.25 8.5 13 8.5C12.75 8.5 12.5 8.25 12.5 8C12.5 7.75 12.7 7.5 13 7.5Z" fill="#263238"/>
</svg>
