<svg width="119" height="55" viewBox="0 0 119 57" fill="none" xmlns="http://www.w3.org/2000/svg">
<path d="M21.8 6.8V36H17.08L16.28 34.28C15.6667 34.92 14.8133 35.4533 13.72 35.88C12.6533 36.28 11.5333 36.48 10.36 36.48C8.94667 36.48 7.64 36.2133 6.44 35.68C5.24 35.12 4.2 34.3733 3.32 33.44C2.46667 32.48 1.78667 31.3733 1.28 30.12C0.8 28.84 0.56 27.48 0.56 26.04C0.56 24.6 0.8 23.2533 1.28 22C1.78667 20.72 2.46667 19.6133 3.32 18.68C4.2 17.72 5.24 16.9733 6.44 16.44C7.64 15.88 8.94667 15.6 10.36 15.6C11.6133 15.6 12.72 15.7467 13.68 16.04C14.6667 16.3333 15.5333 16.8267 16.28 17.52V6.8H21.8ZM16.28 26.12C16.28 25.08 16.1467 24.2133 15.88 23.52C15.6133 22.8 15.24 22.2267 14.76 21.8C14.28 21.3467 13.72 21.0267 13.08 20.84C12.4667 20.6267 11.8 20.52 11.08 20.52C10.36 20.52 9.68 20.6667 9.04 20.96C8.42667 21.2533 7.88 21.6533 7.4 22.16C6.94667 22.64 6.58667 23.2267 6.32 23.92C6.05333 24.5867 5.92 25.2933 5.92 26.04C5.92 26.8133 6.05333 27.5333 6.32 28.2C6.58667 28.8667 6.94667 29.4533 7.4 29.96C7.88 30.44 8.42667 30.8267 9.04 31.12C9.68 31.4133 10.36 31.56 11.08 31.56C12.52 31.56 13.7333 31.12 14.72 30.24C15.7333 29.3333 16.2533 27.96 16.28 26.12ZM46.9537 16.16V36H42.1938L41.6338 33.88C40.8604 34.92 39.9271 35.6133 38.8338 35.96C37.7671 36.3067 36.6471 36.48 35.4737 36.48C34.0604 36.48 32.7537 36.2133 31.5537 35.68C30.3804 35.12 29.3537 34.3733 28.4737 33.44C27.5937 32.48 26.9004 31.3733 26.3937 30.12C25.9137 28.84 25.6737 27.48 25.6737 26.04C25.6737 24.6 25.9137 23.2533 26.3937 22C26.9004 20.72 27.5937 19.6133 28.4737 18.68C29.3537 17.72 30.3804 16.9733 31.5537 16.44C32.7537 15.88 34.0604 15.6 35.4737 15.6C36.7537 15.6 37.9271 15.8 38.9937 16.2C40.0604 16.6 40.9404 17.24 41.6338 18.12L42.1938 16.16H46.9537ZM41.4338 26.12C41.4338 25.08 41.2871 24.2133 40.9938 23.52C40.7271 22.8 40.3538 22.2267 39.8738 21.8C39.4204 21.3467 38.8737 21.0267 38.2337 20.84C37.6204 20.6267 36.9537 20.52 36.2337 20.52C35.5137 20.52 34.8337 20.6667 34.1937 20.96C33.5804 21.2533 33.0337 21.6533 32.5537 22.16C32.0737 22.64 31.7004 23.2267 31.4337 23.92C31.1671 24.5867 31.0337 25.2933 31.0337 26.04C31.0337 26.8133 31.1671 27.5333 31.4337 28.2C31.7004 28.8667 32.0737 29.4533 32.5537 29.96C33.0337 30.44 33.5804 30.8267 34.1937 31.12C34.8337 31.4133 35.5137 31.56 36.2337 31.56C37.6737 31.56 38.8871 31.12 39.8738 30.24C40.8871 29.3333 41.4071 27.96 41.4338 26.12ZM56.7697 18.92C57.0364 18.4933 57.343 18.0933 57.6897 17.72C58.0364 17.32 58.4497 16.9733 58.9297 16.68C59.4097 16.36 59.9564 16.1067 60.5697 15.92C61.183 15.7333 61.8764 15.64 62.6497 15.64C63.5564 15.64 64.6097 15.8 65.8097 16.12L65.2897 21.04C64.9964 20.9867 64.703 20.92 64.4097 20.84C64.1697 20.7867 63.903 20.7467 63.6097 20.72C63.3164 20.6667 63.0497 20.64 62.8097 20.64C61.9564 20.64 61.1564 20.76 60.4097 21C59.6897 21.24 59.063 21.5733 58.5297 22C57.9964 22.4267 57.5697 22.9467 57.2497 23.56C56.9297 24.1467 56.7697 24.7867 56.7697 25.48V36H51.2497V16.16H56.2497L56.7697 18.92Z" fill="#2C77E7"/>
<path d="M80.0941 15.6C81.4807 15.6 82.7741 15.88 83.9741 16.44C85.1741 16.9733 86.2141 17.72 87.0941 18.68C87.9741 19.6133 88.6541 20.72 89.1341 22C89.6407 23.2533 89.8941 24.6 89.8941 26.04C89.8941 27.48 89.6407 28.84 89.1341 30.12C88.6541 31.3733 87.9741 32.48 87.0941 33.44C86.2141 34.3733 85.1741 35.12 83.9741 35.68C82.7741 36.2133 81.4807 36.48 80.0941 36.48C78.9207 36.48 77.7874 36.28 76.6941 35.88C75.6274 35.4533 74.7874 34.92 74.1741 34.28L73.3741 36H68.6541V6.8H74.1741V17.76C75.6941 16.32 77.6674 15.6 80.0941 15.6ZM79.3341 31.56C80.0541 31.56 80.7207 31.4133 81.3341 31.12C81.9741 30.8267 82.5341 30.44 83.0141 29.96C83.4941 29.4533 83.8674 28.8667 84.1341 28.2C84.4007 27.5333 84.5341 26.8133 84.5341 26.04C84.5341 25.2933 84.4007 24.5867 84.1341 23.92C83.8674 23.2267 83.4941 22.64 83.0141 22.16C82.5341 21.6533 81.9741 21.2533 81.3341 20.96C80.7207 20.6667 80.0541 20.52 79.3341 20.52C78.6141 20.52 77.9341 20.6267 77.2941 20.84C76.6807 21.0267 76.1341 21.3467 75.6541 21.8C75.2007 22.2267 74.8407 22.8 74.5741 23.52C74.3074 24.2133 74.1741 25.08 74.1741 26.12C74.1741 27.0533 74.3074 27.8667 74.5741 28.56C74.8407 29.2267 75.2007 29.7867 75.6541 30.24C76.1341 30.6667 76.6807 31 77.2941 31.24C77.9341 31.4533 78.6141 31.56 79.3341 31.56ZM102.847 15.6C104.34 15.6 105.7 15.9067 106.927 16.52C108.154 17.1067 109.207 17.8933 110.087 18.88C110.967 19.84 111.647 20.96 112.127 22.24C112.607 23.4933 112.847 24.7867 112.847 26.12C112.847 26.92 112.74 27.7733 112.527 28.68H98.3669C98.9002 29.5867 99.6602 30.36 100.647 31C101.634 31.6133 102.7 31.92 103.847 31.92C104.994 31.92 105.994 31.8267 106.847 31.64C107.727 31.4533 108.554 31.2133 109.327 30.92L111.167 34.32C110.18 35.0133 109.047 35.5467 107.767 35.92C106.514 36.2933 105.167 36.48 103.727 36.48C102.154 36.48 100.687 36.2133 99.3269 35.68C97.9669 35.12 96.7802 34.3733 95.7669 33.44C94.7535 32.5067 93.9535 31.4 93.3669 30.12C92.7802 28.84 92.4869 27.48 92.4869 26.04C92.4869 24.6267 92.7535 23.2933 93.2869 22.04C93.8202 20.76 94.5535 19.6533 95.4869 18.72C96.4469 17.76 97.5535 17 98.8069 16.44C100.06 15.88 101.407 15.6 102.847 15.6ZM107.367 24.4C107.047 23.2533 106.474 22.32 105.647 21.6C104.82 20.88 103.887 20.52 102.847 20.52C101.78 20.52 100.807 20.88 99.9269 21.6C99.0735 22.32 98.4869 23.2533 98.1669 24.4H107.367Z" fill="#FF5F2A"/>
<path d="M4.64844 52.5352H2.08008L1.5918 54H0.0341797L2.68066 46.8906H4.03809L6.69922 54H5.1416L4.64844 52.5352ZM2.47559 51.3486H4.25293L3.35938 48.6875L2.47559 51.3486ZM10.2535 54V46.8906H12.7437C13.6064 46.8906 14.2607 47.0566 14.7066 47.3887C15.1526 47.7174 15.3756 48.2008 15.3756 48.8389C15.3756 49.1872 15.2861 49.4948 15.107 49.7617C14.928 50.0254 14.679 50.2191 14.36 50.3428C14.7245 50.4339 15.011 50.6178 15.2193 50.8945C15.4309 51.1712 15.5367 51.5098 15.5367 51.9102C15.5367 52.5938 15.3186 53.1113 14.8824 53.4629C14.4462 53.8145 13.8245 53.9935 13.0172 54H10.2535ZM11.7184 50.9043V52.8232H12.9732C13.3183 52.8232 13.5868 52.7419 13.7789 52.5791C13.9742 52.4131 14.0719 52.1852 14.0719 51.8955C14.0719 51.2445 13.735 50.9141 13.0611 50.9043H11.7184ZM11.7184 49.8691H12.8023C13.5413 49.8561 13.9107 49.5615 13.9107 48.9854C13.9107 48.6631 13.8163 48.432 13.6275 48.292C13.442 48.1488 13.1474 48.0771 12.7437 48.0771H11.7184V49.8691ZM19.1791 54.0977C18.4044 54.0977 17.7729 53.86 17.2846 53.3848C16.7995 52.9095 16.557 52.2764 16.557 51.4854V51.3486C16.557 50.818 16.6596 50.3444 16.8646 49.9277C17.0697 49.5078 17.3594 49.1855 17.7338 48.9609C18.1114 48.7331 18.5411 48.6191 19.0229 48.6191C19.7455 48.6191 20.3135 48.847 20.727 49.3027C21.1436 49.7585 21.352 50.4046 21.352 51.2412V51.8174H17.9877C18.0333 52.1624 18.17 52.4391 18.3979 52.6475C18.629 52.8558 18.9203 52.96 19.2719 52.96C19.8155 52.96 20.2403 52.763 20.5463 52.3691L21.2396 53.1455C21.0281 53.445 20.7416 53.6794 20.3803 53.8486C20.0189 54.0146 19.6186 54.0977 19.1791 54.0977ZM19.018 49.7617C18.738 49.7617 18.5102 49.8561 18.3344 50.0449C18.1618 50.2337 18.0512 50.5039 18.0023 50.8555H19.9652V50.7432C19.9587 50.4307 19.8741 50.1898 19.7113 50.0205C19.5486 49.848 19.3174 49.7617 19.018 49.7617ZM24.0471 47.418V48.7168H24.9504V49.752H24.0471V52.3887C24.0471 52.584 24.0845 52.724 24.1594 52.8086C24.2342 52.8932 24.3775 52.9355 24.5891 52.9355C24.7453 52.9355 24.8837 52.9242 25.0041 52.9014V53.9707C24.7274 54.0553 24.4426 54.0977 24.1496 54.0977C23.16 54.0977 22.6555 53.598 22.6359 52.5986V49.752H21.8645V48.7168H22.6359V47.418H24.0471ZM27.626 47.418V48.7168H28.5293V49.752H27.626V52.3887C27.626 52.584 27.6634 52.724 27.7383 52.8086C27.8132 52.8932 27.9564 52.9355 28.168 52.9355C28.3242 52.9355 28.4626 52.9242 28.583 52.9014V53.9707C28.3063 54.0553 28.0215 54.0977 27.7285 54.0977C26.7389 54.0977 26.2344 53.598 26.2148 52.5986V49.752H25.4434V48.7168H26.2148V47.418H27.626ZM31.9471 54.0977C31.1723 54.0977 30.5408 53.86 30.0525 53.3848C29.5675 52.9095 29.325 52.2764 29.325 51.4854V51.3486C29.325 50.818 29.4275 50.3444 29.6326 49.9277C29.8377 49.5078 30.1274 49.1855 30.5018 48.9609C30.8794 48.7331 31.3091 48.6191 31.7908 48.6191C32.5135 48.6191 33.0815 48.847 33.4949 49.3027C33.9116 49.7585 34.1199 50.4046 34.1199 51.2412V51.8174H30.7557C30.8012 52.1624 30.938 52.4391 31.1658 52.6475C31.3969 52.8558 31.6883 52.96 32.0398 52.96C32.5835 52.96 33.0083 52.763 33.3143 52.3691L34.0076 53.1455C33.796 53.445 33.5096 53.6794 33.1482 53.8486C32.7869 54.0146 32.3865 54.0977 31.9471 54.0977ZM31.7859 49.7617C31.506 49.7617 31.2781 49.8561 31.1023 50.0449C30.9298 50.2337 30.8191 50.5039 30.7703 50.8555H32.7332V50.7432C32.7267 50.4307 32.6421 50.1898 32.4793 50.0205C32.3165 49.848 32.0854 49.7617 31.7859 49.7617ZM38.0943 50.04C37.9023 50.014 37.733 50.001 37.5865 50.001C37.0527 50.001 36.7027 50.1816 36.5367 50.543V54H35.1256V48.7168H36.4586L36.4977 49.3467C36.7809 48.8617 37.1731 48.6191 37.6744 48.6191C37.8307 48.6191 37.9771 48.6403 38.1139 48.6826L38.0943 50.04ZM47.298 51.9492L48.2551 46.8906H49.715L48.1379 54H46.6633L45.5061 49.2441L44.3488 54H42.8742L41.2971 46.8906H42.757L43.7189 51.9395L44.8908 46.8906H46.1311L47.298 51.9492ZM53.5137 54C53.4486 53.873 53.4014 53.7152 53.3721 53.5264C53.0303 53.9072 52.5859 54.0977 52.0391 54.0977C51.5215 54.0977 51.0918 53.9479 50.75 53.6484C50.4115 53.349 50.2422 52.9714 50.2422 52.5156C50.2422 51.9557 50.4489 51.526 50.8623 51.2266C51.279 50.9271 51.8796 50.7757 52.6641 50.7725H53.3135V50.4697C53.3135 50.2256 53.25 50.0303 53.123 49.8838C52.9993 49.7373 52.8024 49.6641 52.5322 49.6641C52.2946 49.6641 52.1074 49.721 51.9707 49.835C51.8372 49.9489 51.7705 50.1051 51.7705 50.3037H50.3594C50.3594 49.9977 50.4538 49.7145 50.6426 49.4541C50.8314 49.1937 51.0983 48.9902 51.4434 48.8438C51.7884 48.694 52.1758 48.6191 52.6055 48.6191C53.2565 48.6191 53.7725 48.7835 54.1533 49.1123C54.5374 49.4378 54.7295 49.8968 54.7295 50.4893V52.7793C54.7327 53.2806 54.8027 53.6598 54.9395 53.917V54H53.5137ZM52.3467 53.0186C52.555 53.0186 52.7471 52.973 52.9229 52.8818C53.0986 52.7874 53.2288 52.6621 53.3135 52.5059V51.5977H52.7861C52.0798 51.5977 51.7038 51.8418 51.6582 52.3301L51.6533 52.4131C51.6533 52.5889 51.7152 52.7337 51.8389 52.8477C51.9626 52.9616 52.1318 53.0186 52.3467 53.0186ZM57.908 52.0029L58.8846 48.7168H60.3982L58.2742 54.8203L58.157 55.0986C57.8413 55.7887 57.3204 56.1338 56.5945 56.1338C56.3895 56.1338 56.1811 56.1029 55.9695 56.041V54.9717L56.1844 54.9766C56.4513 54.9766 56.6499 54.9359 56.7801 54.8545C56.9135 54.7731 57.0177 54.638 57.0926 54.4492L57.2586 54.0146L55.408 48.7168H56.9266L57.908 52.0029ZM68.9965 48.0771H66.8187V54H65.3539V48.0771H63.2055V46.8906H68.9965V48.0771ZM68.7082 51.3096C68.7082 50.7855 68.8091 50.3184 69.0109 49.9082C69.2128 49.498 69.5025 49.1807 69.8801 48.9561C70.2609 48.7314 70.702 48.6191 71.2033 48.6191C71.9162 48.6191 72.4973 48.8372 72.9465 49.2734C73.399 49.7096 73.6512 50.3021 73.7033 51.0508L73.7131 51.4121C73.7131 52.2227 73.4869 52.8737 73.0344 53.3652C72.5819 53.8535 71.9748 54.0977 71.2131 54.0977C70.4514 54.0977 69.8426 53.8535 69.3869 53.3652C68.9344 52.877 68.7082 52.2129 68.7082 51.373V51.3096ZM70.1193 51.4121C70.1193 51.9134 70.2137 52.2975 70.4025 52.5645C70.5913 52.8281 70.8615 52.96 71.2131 52.96C71.5549 52.96 71.8218 52.8298 72.0139 52.5693C72.2059 52.3057 72.302 51.8857 72.302 51.3096C72.302 50.818 72.2059 50.4372 72.0139 50.167C71.8218 49.8968 71.5516 49.7617 71.2033 49.7617C70.8583 49.7617 70.5913 49.8968 70.4025 50.167C70.2137 50.4339 70.1193 50.849 70.1193 51.4121ZM77.5652 54V46.8906H79.7527C80.3777 46.8906 80.936 47.0322 81.4275 47.3154C81.9223 47.5954 82.3081 47.9958 82.5848 48.5166C82.8615 49.0342 82.9998 49.6234 82.9998 50.2842V50.6113C82.9998 51.2721 82.8631 51.8597 82.5896 52.374C82.3195 52.8883 81.937 53.2871 81.4422 53.5703C80.9474 53.8535 80.3891 53.9967 79.7674 54H77.5652ZM79.0301 48.0771V52.8232H79.7381C80.311 52.8232 80.7488 52.6361 81.0516 52.2617C81.3543 51.8874 81.5089 51.3519 81.5154 50.6553V50.2793C81.5154 49.5566 81.3657 49.0098 81.0662 48.6387C80.7667 48.2643 80.3289 48.0771 79.7527 48.0771H79.0301ZM83.9566 51.3096C83.9566 50.7855 84.0576 50.3184 84.2594 49.9082C84.4612 49.498 84.7509 49.1807 85.1285 48.9561C85.5094 48.7314 85.9505 48.6191 86.4518 48.6191C87.1646 48.6191 87.7457 48.8372 88.1949 49.2734C88.6474 49.7096 88.8997 50.3021 88.9518 51.0508L88.9615 51.4121C88.9615 52.2227 88.7353 52.8737 88.2828 53.3652C87.8303 53.8535 87.2232 54.0977 86.4615 54.0977C85.6998 54.0977 85.0911 53.8535 84.6354 53.3652C84.1829 52.877 83.9566 52.2129 83.9566 51.373V51.3096ZM85.3678 51.4121C85.3678 51.9134 85.4622 52.2975 85.651 52.5645C85.8398 52.8281 86.11 52.96 86.4615 52.96C86.8033 52.96 87.0702 52.8298 87.2623 52.5693C87.4544 52.3057 87.5504 51.8857 87.5504 51.3096C87.5504 50.818 87.4544 50.4372 87.2623 50.167C87.0702 49.8968 86.8001 49.7617 86.4518 49.7617C86.1067 49.7617 85.8398 49.8968 85.651 50.167C85.4622 50.4339 85.3678 50.849 85.3678 51.4121ZM98.4387 53.1016C98.175 53.4173 97.8023 53.6631 97.3205 53.8389C96.8387 54.0114 96.3049 54.0977 95.7189 54.0977C95.1037 54.0977 94.5633 53.9642 94.0979 53.6973C93.6356 53.4271 93.2775 53.0365 93.0236 52.5254C92.773 52.0143 92.6444 51.4137 92.6379 50.7236V50.2402C92.6379 49.5306 92.7567 48.917 92.9943 48.3994C93.2352 47.8786 93.5803 47.4814 94.0295 47.208C94.482 46.9313 95.0109 46.793 95.6164 46.793C96.4595 46.793 97.1187 46.9948 97.5939 47.3984C98.0692 47.7988 98.3508 48.3831 98.4387 49.1514H97.0129C96.9478 48.7445 96.8029 48.4466 96.5783 48.2578C96.357 48.069 96.051 47.9746 95.6604 47.9746C95.1623 47.9746 94.7831 48.1618 94.5227 48.5361C94.2622 48.9105 94.1304 49.4671 94.1272 50.2061V50.6602C94.1272 51.4056 94.2688 51.9688 94.552 52.3496C94.8352 52.7305 95.2502 52.9209 95.7971 52.9209C96.3472 52.9209 96.7395 52.8037 96.9738 52.5693V51.3438H95.6408V50.2646H98.4387V53.1016ZM99.5176 51.3096C99.5176 50.7855 99.6185 50.3184 99.8203 49.9082C100.022 49.498 100.312 49.1807 100.689 48.9561C101.07 48.7314 101.511 48.6191 102.013 48.6191C102.726 48.6191 103.307 48.8372 103.756 49.2734C104.208 49.7096 104.461 50.3021 104.513 51.0508L104.522 51.4121C104.522 52.2227 104.296 52.8737 103.844 53.3652C103.391 53.8535 102.784 54.0977 102.022 54.0977C101.261 54.0977 100.652 53.8535 100.196 53.3652C99.7438 52.877 99.5176 52.2129 99.5176 51.373V51.3096ZM100.929 51.4121C100.929 51.9134 101.023 52.2975 101.212 52.5645C101.401 52.8281 101.671 52.96 102.022 52.96C102.364 52.96 102.631 52.8298 102.823 52.5693C103.015 52.3057 103.111 51.8857 103.111 51.3096C103.111 50.818 103.015 50.4372 102.823 50.167C102.631 49.8968 102.361 49.7617 102.013 49.7617C101.668 49.7617 101.401 49.8968 101.212 50.167C101.023 50.4339 100.929 50.849 100.929 51.4121ZM105.372 51.3096C105.372 50.7855 105.473 50.3184 105.675 49.9082C105.876 49.498 106.166 49.1807 106.544 48.9561C106.925 48.7314 107.366 48.6191 107.867 48.6191C108.58 48.6191 109.161 48.8372 109.61 49.2734C110.063 49.7096 110.315 50.3021 110.367 51.0508L110.377 51.4121C110.377 52.2227 110.151 52.8737 109.698 53.3652C109.246 53.8535 108.638 54.0977 107.877 54.0977C107.115 54.0977 106.506 53.8535 106.051 53.3652C105.598 52.877 105.372 52.2129 105.372 51.373V51.3096ZM106.783 51.4121C106.783 51.9134 106.877 52.2975 107.066 52.5645C107.255 52.8281 107.525 52.96 107.877 52.96C108.219 52.96 108.485 52.8298 108.678 52.5693C108.87 52.3057 108.966 51.8857 108.966 51.3096C108.966 50.818 108.87 50.4372 108.678 50.167C108.485 49.8968 108.215 49.7617 107.867 49.7617C107.522 49.7617 107.255 49.8968 107.066 50.167C106.877 50.4339 106.783 50.849 106.783 51.4121ZM111.226 51.3193C111.226 50.4958 111.41 49.8398 111.778 49.3516C112.149 48.8633 112.655 48.6191 113.296 48.6191C113.811 48.6191 114.236 48.8112 114.571 49.1953V46.5H115.987V54H114.713L114.644 53.4385C114.293 53.8779 113.84 54.0977 113.287 54.0977C112.665 54.0977 112.165 53.8535 111.788 53.3652C111.413 52.8737 111.226 52.1917 111.226 51.3193ZM112.637 51.4219C112.637 51.9167 112.724 52.2959 112.896 52.5596C113.069 52.8232 113.319 52.9551 113.648 52.9551C114.084 52.9551 114.392 52.7712 114.571 52.4033V50.3184C114.395 49.9505 114.091 49.7666 113.658 49.7666C112.977 49.7666 112.637 50.3184 112.637 51.4219Z" fill="#2C77E7"/>
</svg>
