<svg width="146" height="186" viewBox="0 0 146 186" fill="none" xmlns="http://www.w3.org/2000/svg">
<path d="M9.88477 156V141.723H12.2188V156H9.88477ZM25.2559 156H22.9512V149.359C22.9512 148.526 22.7819 147.904 22.4434 147.494C22.1113 147.084 21.5807 146.879 20.8516 146.879C19.8815 146.879 19.1719 147.165 18.7227 147.738C18.2734 148.311 18.0488 149.271 18.0488 150.619V156H15.7539V145.199H17.5508L17.873 146.615H17.9902C18.3158 146.101 18.778 145.704 19.377 145.424C19.9759 145.144 20.64 145.004 21.3691 145.004C23.9603 145.004 25.2559 146.322 25.2559 148.959V156ZM32.0918 156.195C30.7441 156.195 29.6927 155.707 28.9375 154.73C28.1823 153.754 27.8047 152.383 27.8047 150.619C27.8047 148.848 28.1855 147.471 28.9473 146.488C29.7155 145.499 30.7767 145.004 32.1309 145.004C33.5501 145.004 34.6309 145.528 35.373 146.576H35.4902C35.3796 145.801 35.3242 145.189 35.3242 144.74V140.805H37.6289V156H35.832L35.4316 154.584H35.3242C34.5885 155.658 33.5111 156.195 32.0918 156.195ZM32.707 154.34C33.651 154.34 34.3379 154.076 34.7676 153.549C35.1973 153.015 35.4186 152.152 35.4316 150.961V150.639C35.4316 149.278 35.2103 148.311 34.7676 147.738C34.3249 147.165 33.6315 146.879 32.6875 146.879C31.8802 146.879 31.2585 147.208 30.8223 147.865C30.3861 148.516 30.168 149.447 30.168 150.658C30.168 151.856 30.3796 152.771 30.8027 153.402C31.2259 154.027 31.8607 154.34 32.707 154.34ZM43.2051 156H40.9102V145.199H43.2051V156ZM40.7734 142.338C40.7734 141.928 40.8841 141.612 41.1055 141.391C41.3333 141.169 41.6556 141.059 42.0723 141.059C42.4759 141.059 42.7884 141.169 43.0098 141.391C43.2376 141.612 43.3516 141.928 43.3516 142.338C43.3516 142.729 43.2376 143.038 43.0098 143.266C42.7884 143.487 42.4759 143.598 42.0723 143.598C41.6556 143.598 41.3333 143.487 41.1055 143.266C40.8841 143.038 40.7734 142.729 40.7734 142.338ZM48.957 156L44.8555 145.199H47.2773L49.4746 151.479C49.8522 152.533 50.0801 153.386 50.1582 154.037H50.2363C50.2949 153.568 50.5228 152.715 50.9199 151.479L53.1172 145.199H55.5586L51.4375 156H48.957ZM59.4941 156H57.1992V145.199H59.4941V156ZM57.0625 142.338C57.0625 141.928 57.1732 141.612 57.3945 141.391C57.6224 141.169 57.9447 141.059 58.3613 141.059C58.765 141.059 59.0775 141.169 59.2988 141.391C59.5267 141.612 59.6406 141.928 59.6406 142.338C59.6406 142.729 59.5267 143.038 59.2988 143.266C59.0775 143.487 58.765 143.598 58.3613 143.598C57.9447 143.598 57.6224 143.487 57.3945 143.266C57.1732 143.038 57.0625 142.729 57.0625 142.338ZM66.4277 156.195C65.0801 156.195 64.0286 155.707 63.2734 154.73C62.5182 153.754 62.1406 152.383 62.1406 150.619C62.1406 148.848 62.5215 147.471 63.2832 146.488C64.0514 145.499 65.1126 145.004 66.4668 145.004C67.8861 145.004 68.9668 145.528 69.709 146.576H69.8262C69.7155 145.801 69.6602 145.189 69.6602 144.74V140.805H71.9648V156H70.168L69.7676 154.584H69.6602C68.9245 155.658 67.847 156.195 66.4277 156.195ZM67.043 154.34C67.987 154.34 68.6738 154.076 69.1035 153.549C69.5332 153.015 69.7546 152.152 69.7676 150.961V150.639C69.7676 149.278 69.5462 148.311 69.1035 147.738C68.6608 147.165 67.9674 146.879 67.0234 146.879C66.2161 146.879 65.5944 147.208 65.1582 147.865C64.722 148.516 64.5039 149.447 64.5039 150.658C64.5039 151.856 64.7155 152.771 65.1387 153.402C65.5618 154.027 66.1966 154.34 67.043 154.34ZM82.8633 156L82.541 154.584H82.4238C82.1048 155.085 81.6491 155.479 81.0566 155.766C80.4707 156.052 79.8001 156.195 79.0449 156.195C77.7363 156.195 76.7598 155.87 76.1152 155.219C75.4707 154.568 75.1484 153.581 75.1484 152.26V145.199H77.4629V151.859C77.4629 152.686 77.6322 153.308 77.9707 153.725C78.3092 154.135 78.8398 154.34 79.5625 154.34C80.526 154.34 81.2324 154.053 81.6816 153.48C82.1374 152.901 82.3652 151.934 82.3652 150.58V145.199H84.6699V156H82.8633ZM94.6992 156L94.2402 154.496H94.1621C93.6413 155.154 93.1172 155.603 92.5898 155.844C92.0625 156.078 91.3854 156.195 90.5586 156.195C89.4974 156.195 88.6673 155.909 88.0684 155.336C87.4759 154.763 87.1797 153.952 87.1797 152.904C87.1797 151.791 87.5931 150.951 88.4199 150.385C89.2467 149.818 90.5065 149.509 92.1992 149.457L94.0645 149.398V148.822C94.0645 148.132 93.9017 147.618 93.5762 147.279C93.2572 146.934 92.7591 146.762 92.082 146.762C91.5286 146.762 90.998 146.843 90.4902 147.006C89.9824 147.169 89.4941 147.361 89.0254 147.582L88.2832 145.941C88.8691 145.635 89.5104 145.404 90.207 145.248C90.9036 145.085 91.5612 145.004 92.1797 145.004C93.5534 145.004 94.5885 145.303 95.2852 145.902C95.9883 146.501 96.3398 147.442 96.3398 148.725V156H94.6992ZM91.2812 154.438C92.1146 154.438 92.7819 154.206 93.2832 153.744C93.791 153.275 94.0449 152.621 94.0449 151.781V150.844L92.6582 150.902C91.5775 150.941 90.7897 151.124 90.2949 151.449C89.8066 151.768 89.5625 152.26 89.5625 152.924C89.5625 153.406 89.7057 153.78 89.9922 154.047C90.2786 154.307 90.7083 154.438 91.2812 154.438ZM101.838 156H99.543V140.805H101.838V156ZM112.385 152.924C112.385 153.979 112.001 154.789 111.232 155.355C110.464 155.915 109.364 156.195 107.932 156.195C106.493 156.195 105.337 155.977 104.465 155.541V153.559C105.734 154.145 106.916 154.438 108.01 154.438C109.423 154.438 110.129 154.011 110.129 153.158C110.129 152.885 110.051 152.657 109.895 152.475C109.738 152.292 109.481 152.104 109.123 151.908C108.765 151.713 108.267 151.492 107.629 151.244C106.385 150.762 105.542 150.281 105.1 149.799C104.663 149.317 104.445 148.692 104.445 147.924C104.445 146.999 104.816 146.283 105.559 145.775C106.307 145.261 107.323 145.004 108.605 145.004C109.875 145.004 111.076 145.261 112.209 145.775L111.467 147.504C110.301 147.022 109.322 146.781 108.527 146.781C107.316 146.781 106.711 147.126 106.711 147.816C106.711 148.155 106.867 148.441 107.18 148.676C107.499 148.91 108.189 149.232 109.25 149.643C110.142 149.988 110.79 150.303 111.193 150.59C111.597 150.876 111.896 151.208 112.092 151.586C112.287 151.957 112.385 152.403 112.385 152.924Z" fill="#263238"/>
<g clip-path="url(#clip0)" filter="url(#filter0_d)">
<path d="M87.7422 26.0971C87.7422 18.3114 81.4945 12 73.7875 12C68.4184 12 63.7574 15.0632 61.4238 19.5542C61.2443 19.8999 60.7598 19.8999 60.5803 19.5542C58.2466 15.0632 53.5857 12 48.2164 12C40.5094 12 34.2617 18.3114 34.2617 26.0971C34.2617 41.4767 58.0711 56.4684 60.7564 58.1102C60.9076 58.2026 61.0961 58.2026 61.2473 58.1102C63.9326 56.4684 87.7422 41.4767 87.7422 26.0971Z" fill="#FF5F2A"/>
<path d="M75.7582 12.1406C78.2863 14.692 79.8503 18.2183 79.8503 22.1135C79.8503 36.461 59.129 50.471 54.168 53.6197C57.4106 56.0309 59.972 57.6338 60.752 58.1107C60.9032 58.2031 61.0917 58.2031 61.2429 58.1107C63.9282 56.4688 87.7376 41.4771 87.7376 26.0975C87.7376 18.9892 82.5296 13.1099 75.7582 12.1406Z" fill="#DD636E"/>
<path d="M24.3951 33.5948H18.831C17.3694 33.5948 16.1846 32.3979 16.1846 30.9214C16.1846 29.4449 17.3694 28.248 18.831 28.248H24.3949C25.8565 28.248 27.0413 29.4449 27.0413 30.9214C27.0413 32.3979 25.8565 33.5948 24.3951 33.5948Z" fill="#2C77E7"/>
<path d="M27.1526 45.0317L21.9241 46.9541C20.5508 47.4592 19.0322 46.7437 18.5324 45.3564C18.0325 43.969 18.7407 42.4349 20.114 41.9301L25.3425 40.0077C26.7158 39.5026 28.2344 40.2181 28.7342 41.6054C29.2341 42.9928 28.5259 44.5267 27.1526 45.0317Z" fill="#2C77E7"/>
<path d="M27.1526 16.809L21.9241 14.8866C20.5508 14.3815 19.0322 15.097 18.5324 16.4843C18.0325 17.8717 18.7407 19.4058 20.114 19.9106L25.3425 21.833C26.7158 22.3381 28.2344 21.6227 28.7342 20.2353C29.2341 18.8481 28.5259 17.314 27.1526 16.809Z" fill="#2C77E7"/>
<path d="M97.6981 33.6964H103.262C104.724 33.6964 105.909 32.4995 105.909 31.023C105.909 29.5465 104.724 28.3496 103.262 28.3496H97.6981C96.2366 28.3496 95.0518 29.5465 95.0518 31.023C95.0519 32.4995 96.2368 33.6964 97.6981 33.6964Z" fill="#2C77E7"/>
<path d="M94.9402 45.1353L100.169 47.0576C101.542 47.5627 103.061 46.8473 103.56 45.4599C104.06 44.0726 103.352 42.5384 101.979 42.0336L96.7503 40.1112C95.377 39.6061 93.8583 40.3216 93.3586 41.7089C92.8586 43.0963 93.5668 44.6302 94.9402 45.1353Z" fill="#2C77E7"/>
<path d="M94.9402 16.9125L100.169 14.9901C101.542 14.4851 103.061 15.2005 103.56 16.5878C104.06 17.9752 103.352 19.5093 101.979 20.0142L96.7503 21.9365C95.377 22.4416 93.8583 21.7262 93.3586 20.3388C92.8586 18.9517 93.5668 17.4175 94.9402 16.9125Z" fill="#2C77E7"/>
<path d="M91.9336 76.0935C91.9336 76.0935 93.8785 61.9622 93.9 61.8932C91.1732 61.2734 88.4248 62.9336 87.6948 65.6857L84.7718 76.7057C84.4625 77.872 83.707 78.8665 82.6719 79.4703L91.9336 76.0935Z" fill="#DF9380"/>
<path d="M100.298 58.3736C97.4898 57.5873 94.5911 59.2641 93.8383 62.1016L90.9153 73.1217C90.606 74.2881 89.8506 75.2825 88.8154 75.8864L98.2801 73.4216L100.298 58.3736Z" fill="#EAAC9D"/>
<path d="M109.941 57.4358C110.156 56.6237 109.747 55.7656 108.975 55.4516C104.985 53.8287 100.62 56.1179 99.5412 60.1837L97.06 69.5386C96.7507 70.7049 95.9952 71.6994 94.9601 72.3031L77.996 82.1972C76.7821 82.9053 75.3266 81.7771 75.6893 80.4093L76.9721 75.5733C77.9803 71.7727 75.7511 67.8662 71.9925 66.8414C70.8347 66.5257 69.6355 67.216 69.3251 68.3862L65.005 84.6734C64.0501 88.2738 63.5664 91.9849 63.5664 95.7121V110.784C63.5664 110.904 63.6625 111.001 63.781 111.001H80.1839C80.3024 111.001 80.3985 110.904 80.3985 110.784V104.518C80.3985 101.262 81.6847 98.1417 83.972 95.8484L103.701 76.0668C104.859 74.9053 105.692 73.4543 106.115 71.8616L109.941 57.4358Z" fill="#FFCBBE"/>
<path d="M30.0649 76.0935C30.0649 76.0935 28.1201 61.9622 28.0986 61.8932C30.8254 61.2734 33.5738 62.9336 34.3038 65.6857L37.2268 76.7057C37.5361 77.872 38.2916 78.8665 39.3267 79.4703L30.0649 76.0935Z" fill="#DF9380"/>
<path d="M21.7002 58.3736C24.5083 57.5873 27.407 59.2641 28.1598 62.1016L31.0827 73.1217C31.3921 74.2881 32.1475 75.2825 33.1827 75.8864L23.718 73.4216L21.7002 58.3736Z" fill="#EAAC9D"/>
<path d="M12.0571 57.4358C11.8418 56.6237 12.2508 55.7656 13.0228 55.4516C17.013 53.8287 21.3782 56.1179 22.4566 60.1837L24.938 69.5386C25.2473 70.7049 26.0028 71.6994 27.0379 72.3031L44.002 82.1972C45.216 82.9053 46.6714 81.7771 46.3087 80.4093L45.0259 75.5733C44.0177 71.7727 46.2469 67.8662 50.0055 66.8414C51.1633 66.5257 52.3625 67.216 52.6729 68.3862L56.993 84.6734C57.9479 88.2738 58.4316 91.9849 58.4316 95.7121V110.784C58.4316 110.904 58.3355 111.001 58.217 111.001H41.8143C41.6958 111.001 41.5997 110.904 41.5997 110.784V104.518C41.5997 101.262 40.3135 98.1417 38.0262 95.8484L18.2972 76.067C17.1388 74.9055 16.3058 73.4545 15.8833 71.8618L12.0571 57.4358Z" fill="#FFCBBE"/>
</g>
<line x1="26" y1="184.5" x2="96" y2="184.5" stroke="#E6E6E6" stroke-width="3"/>
<defs>
<filter id="filter0_d" x="0" y="0" width="146" height="147" filterUnits="userSpaceOnUse" color-interpolation-filters="sRGB">
<feFlood flood-opacity="0" result="BackgroundImageFix"/>
<feColorMatrix in="SourceAlpha" type="matrix" values="0 0 0 0 0 0 0 0 0 0 0 0 0 0 0 0 0 0 127 0" result="hardAlpha"/>
<feOffset dx="12" dy="12"/>
<feGaussianBlur stdDeviation="12"/>
<feColorMatrix type="matrix" values="0 0 0 0 0.94 0 0 0 0 0.94 0 0 0 0 0.94 0 0 0 1 0"/>
<feBlend mode="normal" in2="BackgroundImageFix" result="effect1_dropShadow"/>
<feBlend mode="normal" in="SourceGraphic" in2="effect1_dropShadow" result="shape"/>
</filter>
<clipPath id="clip0">
<rect width="98" height="99" fill="white" transform="translate(12 12)"/>
</clipPath>
</defs>
</svg>
