<svg width="15" height="16" viewBox="0 0 15 16" fill="none" xmlns="http://www.w3.org/2000/svg">
<path d="M14.815 12.3203L12.5688 8.47638C13.0284 7.63983 13.2679 6.70198 13.265 5.74948C13.265 4.22462 12.6537 2.76222 11.5656 1.68398C10.4776 0.605747 9.00179 0 7.46301 0C5.92422 0 4.44846 0.605747 3.36038 1.68398C2.27229 2.76222 1.66101 4.22462 1.66101 5.74948C1.65816 6.70198 1.89761 7.63983 2.35725 8.47638L0.11105 12.3203C0.038161 12.4454 -0.000143612 12.5874 4.04607e-07 12.7318C0.000144421 12.8763 0.0387318 13.0181 0.11187 13.1431C0.185008 13.268 0.290109 13.3717 0.416571 13.4435C0.543032 13.5154 0.686381 13.5529 0.832155 13.5523H3.21097L4.4211 15.5729C4.4619 15.6398 4.51214 15.7007 4.5703 15.7536C4.72395 15.9003 4.9288 15.9827 5.14221 15.9836H5.25825C5.38338 15.9666 5.50295 15.9215 5.60781 15.8518C5.71268 15.782 5.80007 15.6894 5.86331 15.5811L7.46301 12.8542L9.0627 15.6057C9.12688 15.7125 9.21468 15.8035 9.31949 15.8718C9.4243 15.9401 9.54338 15.9839 9.66777 16H9.78381C10.0001 16.0013 10.2083 15.9187 10.364 15.77C10.4198 15.7201 10.4673 15.6619 10.5049 15.5975L11.715 13.577H14.0939C14.2399 13.5776 14.3835 13.5399 14.5102 13.4678C14.6368 13.3956 14.7419 13.2917 14.815 13.1663C14.8924 13.0386 14.9333 12.8923 14.9333 12.7433C14.9333 12.5943 14.8924 12.4481 14.815 12.3203ZM5.13392 13.577L4.39624 12.3532C4.3236 12.2318 4.22061 12.1309 4.09721 12.0604C3.9738 11.9899 3.83414 11.9521 3.69171 11.9507H2.25779L3.44305 9.91375C4.25925 10.6931 5.28794 11.2185 6.40207 11.425L5.13392 13.577ZM11.2343 11.9507C11.0919 11.9521 10.9522 11.9899 10.8288 12.0604C10.7054 12.1309 10.6024 12.2318 10.5298 12.3532L9.7921 13.577L8.53223 11.4004C9.64247 11.1896 10.6673 10.6647 11.483 9.88911L12.6682 11.9261L11.2343 11.9507Z" fill="black"/>
</svg>
