<svg width="24" height="24" viewBox="0 0 24 24" fill="none" xmlns="http://www.w3.org/2000/svg">
<circle cx="12" cy="12" r="12" fill="#FF5F2A"/>
<g clip-path="url(#clip0_8890_103140)">
<path d="M7 16H8C8.275 16 8.5 15.775 8.5 15.5V11C8.5 10.725 8.275 10.5 8 10.5H7V16ZM16.915 12.44C16.97 12.315 17 12.18 17 12.04V11.5C17 10.95 16.55 10.5 16 10.5H13.25L13.71 8.175C13.735 8.065 13.72 7.945 13.67 7.845C13.555 7.62 13.41 7.415 13.23 7.235L13 7L9.795 10.205C9.605 10.395 9.5 10.65 9.5 10.915V14.835C9.5 15.475 10.025 16 10.67 16H14.725C15.075 16 15.405 15.815 15.585 15.515L16.915 12.44Z" fill="white"/>
</g>
<defs>
<clipPath id="clip0_8890_103140">
<rect width="12" height="12" fill="white" transform="translate(6 6)"/>
</clipPath>
</defs>
</svg>
