<svg width="32" height="32" viewBox="0 0 32 32" fill="none" xmlns="http://www.w3.org/2000/svg">
<path d="M0 6.40009V26.6667C0 27.2558 0.477563 27.7334 1.06669 27.7334H30.9332C31.5223 27.7334 31.9998 27.2558 31.9998 26.6667V6.40009L15.9999 2.32153L0 6.40009Z" fill="#ECF3FD"/>
<path d="M30.5198 26.6665C30.5198 27.2557 30.0423 27.7332 29.4531 27.7332H30.934C31.5231 27.7332 32.0006 27.2557 32.0006 26.6665V6.39996L30.5198 6.02246V26.6665H30.5198Z" fill="#D6E3FA"/>
<path d="M18.6661 25.5999C18.3716 25.5999 18.1328 25.3611 18.1328 25.0666V21.8666C18.1328 21.572 18.3716 21.3333 18.6661 21.3333H26.6661C26.9607 21.3333 27.1995 21.572 27.1995 21.8666V25.0666C27.1995 25.3611 26.9607 25.5999 26.6661 25.5999H18.6661Z" fill="#FF5F2A"/>
<path d="M26.6664 21.3333H25.1855C25.4801 21.3333 25.7189 21.572 25.7189 21.8666V25.0666C25.7189 25.3611 25.4801 25.5999 25.1855 25.5999H26.6664C26.961 25.5999 27.1997 25.3611 27.1997 25.0666V21.8666C27.1997 21.572 26.961 21.3333 26.6664 21.3333Z" fill="#FF5F2A"/>
<path d="M25.0992 10.6668H19.6992C19.4231 10.6668 19.1992 10.4429 19.1992 10.1668V9.03345C19.1992 8.75732 19.4231 8.53345 19.6992 8.53345H25.0992C25.3754 8.53345 25.5992 8.75732 25.5992 9.03345V10.1668C25.5992 10.4429 25.3754 10.6668 25.0992 10.6668Z" fill="#82B7F9"/>
<path d="M28.267 13.2829H16.5337C16.267 13.2829 16.0508 13.0667 16.0508 12.8C16.0508 12.5333 16.267 12.3171 16.5337 12.3171H28.267C28.5337 12.3171 28.7499 12.5333 28.7499 12.8C28.7499 13.0667 28.5337 13.2829 28.267 13.2829Z" fill="#617881"/>
<path d="M28.267 15.4162H16.5337C16.267 15.4162 16.0508 15.2 16.0508 14.9333C16.0508 14.6666 16.267 14.4504 16.5337 14.4504H28.267C28.5337 14.4504 28.7499 14.6666 28.7499 14.9333C28.7499 15.2 28.5337 15.4162 28.267 15.4162Z" fill="#617881"/>
<path d="M25.0662 17.5497H19.7329C19.4662 17.5497 19.25 17.3335 19.25 17.0669C19.25 16.8002 19.4662 16.584 19.7329 16.584H25.0662C25.3329 16.584 25.5491 16.8002 25.5491 17.0669C25.5491 17.3335 25.3329 17.5497 25.0662 17.5497Z" fill="#617881"/>
<path d="M25.0844 8.53345H23.6035C23.888 8.53345 24.1186 8.76407 24.1186 9.04857V10.1517C24.1186 10.4362 23.888 10.6668 23.6035 10.6668H25.0844C25.3688 10.6668 25.5995 10.4361 25.5995 10.1517V9.04857C25.5995 8.76407 25.3688 8.53345 25.0844 8.53345Z" fill="#66A4F7"/>
<path d="M13.401 21.3058H4.73438C4.18206 21.3058 3.73438 20.8581 3.73438 20.3058V9.50586C3.73438 8.95355 4.18206 8.50586 4.73438 8.50586H13.401C13.9533 8.50586 14.401 8.95355 14.401 9.50586V20.3058C14.401 20.8581 13.9533 21.3058 13.401 21.3058Z" fill="#F0DC34"/>
<path d="M13.3696 8.50586H11.8887C12.4576 8.50586 12.9189 8.96711 12.9189 9.53604V20.2756C12.9189 20.8446 12.4576 21.3058 11.8887 21.3058H13.3696C13.9385 21.3058 14.3997 20.8446 14.3997 20.2756V9.53604C14.3997 8.96711 13.9385 8.50586 13.3696 8.50586Z" fill="#ECC130"/>
<path d="M30.9332 0H1.06663C0.477563 0 0 0.477562 0 1.06669V6.39999H31.9999V1.06669C31.9998 0.477562 31.5222 0 30.9332 0V0Z" fill="#82B7F9"/>
<path d="M30.5198 1.06669V6.39999H32.0006V1.06669C32.0006 0.477562 31.5231 0 30.934 0H29.4531C30.0422 0 30.5198 0.477562 30.5198 1.06669Z" fill="#66A4F7"/>
<path d="M3.95386 3.9541C4.37036 3.53759 4.37036 2.86231 3.95386 2.4458C3.53735 2.0293 2.86206 2.0293 2.44556 2.4458C2.02905 2.86231 2.02905 3.53759 2.44556 3.9541C2.86206 4.3706 3.53735 4.3706 3.95386 3.9541Z" fill="#DC6671"/>
<path d="M8.21948 3.95459C8.63598 3.53808 8.63598 2.8628 8.21948 2.44629C7.80297 2.02979 7.12769 2.02979 6.71118 2.44629C6.29468 2.8628 6.29468 3.53808 6.71118 3.95459C7.12769 4.37109 7.80297 4.37109 8.21948 3.95459Z" fill="#A3F3C3"/>
<path d="M12.7742 3.44913C12.9097 2.87592 12.5549 2.3014 11.9817 2.16591C11.4085 2.03041 10.834 2.38525 10.6985 2.95845C10.563 3.53166 10.9178 4.10618 11.491 4.24168C12.0642 4.37717 12.6387 4.02234 12.7742 3.44913Z" fill="#F0DC34"/>
<path d="M28.2526 27.1743L22.5626 25.078C22.1357 24.9207 21.7205 25.3359 21.8778 25.7628L23.9741 31.4527C24.0414 31.6354 24.2753 31.6867 24.4129 31.5491L25.4382 30.5239C25.5423 30.4197 25.7112 30.4197 25.8153 30.5239L27.1352 31.8438C27.3435 32.052 27.6812 32.052 27.8895 31.8438L28.6437 31.0895C28.852 30.8813 28.852 30.5436 28.6437 30.3353L27.3238 29.0154C27.2197 28.9112 27.2197 28.7424 27.3238 28.6382L28.3491 27.613C28.4865 27.4755 28.4351 27.2415 28.2526 27.1743Z" fill="#D6E3FA"/>
<path d="M28.6431 30.3354L27.3232 29.0155C27.219 28.9113 27.219 28.7425 27.3232 28.6383L28.3484 27.6131C28.486 27.4755 28.4347 27.2416 28.252 27.1743L22.5621 25.078C22.2722 24.9711 21.9883 25.1285 21.8848 25.374L26.7712 27.1743C26.9538 27.2416 27.0052 27.4755 26.8675 27.6131L25.8423 28.6383C25.7381 28.7425 25.7381 28.9113 25.8423 29.0155L27.1622 30.3354C27.3705 30.5436 27.3705 30.8813 27.1622 31.0896L26.7713 31.4806L27.1346 31.8439C27.3428 32.0522 27.6805 32.0522 27.8888 31.8439L28.6431 31.0896C28.8513 30.8813 28.8513 30.5436 28.6431 30.3354Z" fill="#BDD5F8"/>
<path d="M10.7747 19.4611C10.3661 19.2412 9.75068 18.8774 9.06717 18.3612C8.38392 18.8772 7.7688 19.2409 7.36017 19.4609C7.08911 19.6067 6.75167 19.4909 6.6273 19.2093L6.19898 18.2395C6.0888 17.9899 6.18642 17.6967 6.42536 17.565C6.68611 17.4214 7.04742 17.2069 7.45592 16.9209C7.09967 16.5419 6.75286 16.1225 6.43323 15.6617C5.55548 14.3962 5.71261 12.6836 6.80692 11.5894C7.46811 10.9281 8.36811 10.5922 9.31249 10.6622C9.94318 10.7089 10.5503 10.9447 11.0456 11.3381C12.3897 12.4054 12.6495 14.2946 11.7011 15.6618C11.3816 16.1226 11.0347 16.5419 10.6784 16.9209C11.0876 17.2073 11.4494 17.422 11.7106 17.5658C11.9498 17.6975 12.0474 17.9912 11.9367 18.2409L11.5073 19.2101C11.3827 19.4914 11.0456 19.6069 10.7747 19.4611ZM9.06717 12.7641C8.77724 12.7641 8.50461 12.877 8.29955 13.0821C7.92774 13.4538 7.8723 14.0328 8.16774 14.4587C8.4458 14.8595 8.75199 15.2237 9.06717 15.5514C9.3823 15.2237 9.68849 14.8595 9.96661 14.4587C10.262 14.0328 10.2066 13.4539 9.8348 13.0821C9.6298 12.877 9.35718 12.7641 9.06717 12.7641Z" fill="#FF5F2A" fill-opacity="0.65"/>
<path d="M8.1675 14.4586C8.15094 14.4346 8.13582 14.4101 8.12138 14.3853C7.57906 14.9437 7.01513 15.4036 6.50781 15.7673C6.8065 16.1866 7.12694 16.5711 7.45569 16.9209C7.95475 16.5716 8.52419 16.1154 9.06694 15.5513C8.75169 15.2236 8.4455 14.8594 8.1675 14.4586Z" fill="#FF5F2A"/>
<path d="M11.7101 17.5659C11.4489 17.4221 11.087 17.2073 10.6779 16.921C11.0341 16.542 11.381 16.1227 11.7006 15.6619C12.649 14.2948 12.3892 12.4055 11.045 11.3382C10.5498 10.9449 9.94263 10.7091 9.31194 10.6623C8.97513 10.6373 8.64425 10.6649 8.32757 10.7395C8.77669 10.846 9.20057 11.0495 9.56413 11.3381C10.9083 12.4055 11.1681 14.2946 10.2197 15.6618C9.90007 16.1226 9.55326 16.542 9.19701 16.921C8.71075 17.4772 7.9575 18.0688 7.58575 18.3613C7.21756 18.6393 6.8695 18.8728 6.5625 19.0638L6.62681 19.2093C6.75119 19.4909 7.08863 19.6068 7.35969 19.4609C7.76825 19.241 8.38344 18.8773 9.06669 18.3613C9.75019 18.8775 10.3656 19.2413 10.7742 19.4611C11.0451 19.6069 11.3822 19.4913 11.5068 19.2101L11.9363 18.2409C12.0468 17.9913 11.9492 17.6976 11.7101 17.5659Z" fill="#FF5F2A"/>
</svg>
