<svg width="32" height="32" viewBox="0 0 32 32" fill="none" xmlns="http://www.w3.org/2000/svg">
  <path d="M12 14.6667C11.6222 14.6667 11.3058 14.5387 11.0507 14.2827C10.7947 14.0276 10.6667 13.7111 10.6667 13.3333C10.6667 12.9556 10.7947 12.6387 11.0507 12.3827C11.3058 12.1276 11.6222 12 12 12H20C20.3778 12 20.6947 12.1276 20.9507 12.3827C21.2058 12.6387 21.3333 12.9556 21.3333 13.3333C21.3333 13.7111 21.2058 14.0276 20.9507 14.2827C20.6947 14.5387 20.3778 14.6667 20 14.6667H12ZM12 18.6667C11.6222 18.6667 11.3058 18.5387 11.0507 18.2827C10.7947 18.0276 10.6667 17.7111 10.6667 17.3333C10.6667 16.9556 10.7947 16.6387 11.0507 16.3827C11.3058 16.1276 11.6222 16 12 16H20C20.3778 16 20.6947 16.1276 20.9507 16.3827C21.2058 16.6387 21.3333 16.9556 21.3333 17.3333C21.3333 17.7111 21.2058 18.0276 20.9507 18.2827C20.6947 18.5387 20.3778 18.6667 20 18.6667H12ZM12 22.6667C11.6222 22.6667 11.3058 22.5387 11.0507 22.2827C10.7947 22.0276 10.6667 21.7111 10.6667 21.3333C10.6667 20.9556 10.7947 20.6387 11.0507 20.3827C11.3058 20.1276 11.6222 20 12 20H20C20.3778 20 20.6947 20.1276 20.9507 20.3827C21.2058 20.6387 21.3333 20.9556 21.3333 21.3333C21.3333 21.7111 21.2058 22.0276 20.9507 22.2827C20.6947 22.5387 20.3778 22.6667 20 22.6667H12ZM24 12C23.6222 12 23.3058 11.872 23.0507 11.616C22.7947 11.3609 22.6667 11.0444 22.6667 10.6667V9.33333H21.3333C20.9556 9.33333 20.6391 9.20578 20.384 8.95067C20.128 8.69467 20 8.37778 20 8C20 7.62222 20.128 7.30533 20.384 7.04933C20.6391 6.79422 20.9556 6.66667 21.3333 6.66667H22.6667V5.33333C22.6667 4.95556 22.7947 4.63867 23.0507 4.38267C23.3058 4.12756 23.6222 4 24 4C24.3778 4 24.6942 4.12756 24.9493 4.38267C25.2053 4.63867 25.3333 4.95556 25.3333 5.33333V6.66667H26.6667C27.0444 6.66667 27.3609 6.79422 27.616 7.04933C27.872 7.30533 28 7.62222 28 8C28 8.37778 27.872 8.69467 27.616 8.95067C27.3609 9.20578 27.0444 9.33333 26.6667 9.33333H25.3333V10.6667C25.3333 11.0444 25.2053 11.3609 24.9493 11.616C24.6942 11.872 24.3778 12 24 12ZM6.66667 28C5.93333 28 5.30533 27.7391 4.78267 27.2173C4.26089 26.6947 4 26.0667 4 25.3333V6.66667C4 5.93333 4.26089 5.30533 4.78267 4.78267C5.30533 4.26089 5.93333 4 6.66667 4H17.3333C17.7111 4 18.028 4.12756 18.284 4.38267C18.5391 4.63867 18.6667 4.95556 18.6667 5.33333C18.6667 5.71111 18.5391 6.02756 18.284 6.28267C18.028 6.53867 17.7111 6.66667 17.3333 6.66667H6.66667V25.3333H25.3333V14.6667C25.3333 14.2889 25.4613 13.972 25.7173 13.716C25.9724 13.4609 26.2889 13.3333 26.6667 13.3333C27.0444 13.3333 27.3609 13.4609 27.616 13.716C27.872 13.972 28 14.2889 28 14.6667V25.3333C28 26.0667 27.7391 26.6947 27.2173 27.2173C26.6947 27.7391 26.0667 28 25.3333 28H6.66667Z" fill="black"/>
</svg>
