<svg width="20" height="20" viewBox="0 0 20 20" fill="none" xmlns="http://www.w3.org/2000/svg">
<g clip-path="url(#clip0_10244_71724)">
<path d="M12.5 0.833984H7.5V2.50065H12.5V0.833984ZM9.16667 11.6673H10.8333V6.66732H9.16667V11.6673ZM15.8583 6.15898L17.0417 4.97565C16.6833 4.55065 16.2917 4.15065 15.8667 3.80065L14.6833 4.98398C13.3917 3.95065 11.7667 3.33398 10 3.33398C5.85833 3.33398 2.5 6.69232 2.5 10.834C2.5 14.9757 5.85 18.334 10 18.334C14.15 18.334 17.5 14.9757 17.5 10.834C17.5 9.06732 16.8833 7.44232 15.8583 6.15898ZM10 16.6673C6.775 16.6673 4.16667 14.059 4.16667 10.834C4.16667 7.60898 6.775 5.00065 10 5.00065C13.225 5.00065 15.8333 7.60898 15.8333 10.834C15.8333 14.059 13.225 16.6673 10 16.6673Z" fill="black"/>
</g>
<defs>
<clipPath id="clip0_10244_71724">
<rect width="20" height="20" fill="white"/>
</clipPath>
</defs>
</svg>
