<svg width="145" height="142" viewBox="0 0 145 142" fill="none" xmlns="http://www.w3.org/2000/svg">
<path d="M52.9456 54.2716H84.6038L85.7039 25.9104H44.5852C42.6565 25.9104 40.7683 25.325 39.2205 24.2017C36.6794 22.3579 33.5322 21.2656 30.1223 21.2656H9.85913C7.97925 21.2656 6.45532 22.753 6.45532 24.5877V26.2783C6.45532 28.1131 7.97925 29.6005 9.85913 29.6005H5.84644C3.48828 29.6005 1.57666 31.4662 1.57666 33.7678V35.3066C1.57666 37.6081 3.48828 39.4739 5.84644 39.4739H4.27002C1.91162 39.4739 0 41.3396 0 43.6412V45.18C0 47.4816 1.91162 49.3473 4.26978 49.3473H5.84644C3.48828 49.3473 1.57666 51.213 1.57666 53.5146V55.0534C1.57666 57.355 3.48828 59.2207 5.84644 59.2207H31.2688C33.2771 59.2207 34.905 60.8096 34.905 62.7697V68.7362L34.9788 68.7379C39.7268 68.7403 43.8838 65.6283 45.1128 61.1522L45.4636 59.8746C46.3711 56.5698 49.4397 54.2716 52.9456 54.2716Z" fill="#FFF1DD"/>
<path d="M77.0598 25.9102V39.7278C77.0598 45.0487 72.6404 49.362 67.1887 49.362H61.3091L59.2019 54.2716H88.9214L84.605 25.9104H77.0598V25.9102Z" fill="#FFE4C1"/>
<path d="M14.5732 39.4755H5.82861C3.64624 39.4674 1.84985 37.8611 1.60425 35.7933H14.5732C15.615 35.7933 16.4595 36.6176 16.4595 37.6343C16.4597 38.6513 15.6152 39.4755 14.5732 39.4755ZM16.4597 47.508C16.4597 46.491 15.6152 45.667 14.5735 45.667H0.0275879C0.273926 47.7401 2.07861 49.3492 4.2688 49.3492H14.5732C15.6152 49.3489 16.4597 48.5247 16.4597 47.508ZM16.4597 27.7609C16.4597 26.7439 15.6152 25.9199 14.5735 25.9199H6.45459V26.2802C6.45459 28.1069 7.96533 29.5892 9.83399 29.6021H14.5735C15.6152 29.6018 16.4597 28.7776 16.4597 27.7609Z" fill="#FFE4C1"/>
<path d="M89.6731 71.8799V107.15L118.732 103.852V63.7202C118.732 61.8378 119.332 59.9949 120.482 58.4842C122.372 56.0042 123.491 52.9325 123.491 49.6045V29.8276C123.491 27.9928 121.967 26.5055 120.087 26.5055H118.355C116.475 26.5055 114.951 27.9928 114.951 29.8276V25.9112C114.951 23.6096 113.039 21.7439 110.681 21.7439H109.104C106.746 21.7439 104.835 23.6096 104.835 25.9112V24.3724C104.835 22.0708 102.923 20.2051 100.565 20.2051H98.9883C96.6301 20.2051 94.7185 22.0708 94.7185 24.3724V25.9112C94.7185 23.6096 92.8069 21.7439 90.4487 21.7439H88.8721C86.5139 21.7439 84.6023 23.6096 84.6023 25.9112V50.7234C84.6023 52.6835 82.9744 54.2724 80.9661 54.2724H74.8528L74.8511 54.3443C74.8486 58.9784 78.0371 63.0357 82.6233 64.2352L83.9324 64.5776C87.3184 65.463 89.6731 68.4582 89.6731 71.8799Z" fill="#DFACA0"/>
<path d="M113.065 81.7832C111.717 83.521 112.698 90.3084 110.682 91.2899C109.373 95.1134 105.675 97.8693 101.318 97.8693H89.6753V102.779L118.734 106.408V87.1452L113.065 81.7832Z" fill="#D59B8B"/>
<path d="M120.088 26.5059H118.355C117.414 26.5059 116.562 26.8788 115.946 27.4814V44.6953C115.946 48.0115 114.835 51.0731 112.958 53.5486C111.804 55.0708 111.188 56.9172 111.188 58.8111V72.0409C112.99 73.0072 114.56 74.3358 115.794 75.9263L118.733 70.0406V63.7209C118.733 61.827 119.349 59.9806 120.504 58.4584C122.381 55.9829 123.492 52.9212 123.492 49.6051V29.828C123.491 27.9932 121.968 26.5059 120.088 26.5059Z" fill="#D59B8B"/>
<path d="M104.835 34.429V25.8942C104.843 23.7642 106.489 22.011 108.608 21.7712V34.429C108.608 35.4457 107.763 36.2699 106.721 36.2699C105.68 36.2699 104.835 35.4457 104.835 34.429ZM96.605 36.2699C97.647 36.2699 98.4912 35.4457 98.4912 34.429V20.2324C96.3672 20.4728 94.7185 22.2342 94.7185 24.3718V34.429C94.7187 35.4457 95.563 36.2699 96.605 36.2699ZM116.838 36.2699C117.88 36.2699 118.724 35.4457 118.724 34.429V26.5049H118.355C116.483 26.5049 114.964 27.9794 114.951 29.8032V34.429C114.951 35.4457 115.796 36.2699 116.838 36.2699Z" fill="#D59B8B"/>
<path d="M115.947 27.4814V36.0524C116.212 36.1918 116.516 36.2709 116.839 36.2709C117.881 36.2709 118.725 35.4466 118.725 34.4299V26.5059H118.356C117.415 26.5059 116.563 26.8788 115.947 27.4814Z" fill="#C18678"/>
<path d="M58.8015 107.727H37.2576L39.9763 136.088H58.8015V107.727Z" fill="#9DC6FB"/>
<path d="M48.7412 107.727V121.544C48.7412 126.5 44.9072 130.582 39.9763 131.118L37.2576 136.088H61.793L58.8015 107.727H48.7412Z" fill="#80B4FB"/>
<path d="M34.9058 90.1203V59.2221L5.84717 58.1484V98.2802C5.84717 100.163 5.24731 102.006 4.09644 103.516C2.20728 105.996 1.08813 109.068 1.08813 112.396V132.173C1.08813 134.008 2.61206 135.495 4.49194 135.495H6.22412C8.104 135.495 9.62793 134.008 9.62793 132.173V136.089C9.62793 138.391 11.5396 140.257 13.8977 140.257H15.4744C17.8325 140.257 19.7441 138.391 19.7441 136.089V137.628C19.7441 139.929 21.6558 141.795 24.0139 141.795H25.5906C27.9487 141.795 29.8604 139.929 29.8604 137.628V136.089C29.8604 138.391 31.772 140.256 34.1301 140.256H35.7068C38.0649 140.256 39.9766 138.391 39.9766 136.089V111.277C39.9766 109.317 41.6045 107.728 43.6128 107.728H49.7261L49.7278 107.656C49.7302 103.022 46.5417 98.9646 41.9556 97.7651L40.6465 97.4227C37.2605 96.5372 34.9058 93.542 34.9058 90.1203Z" fill="#A55E4D"/>
<path d="M41.9541 97.7657L40.645 97.4233C37.2585 96.5376 34.9038 93.5426 34.9038 90.1209V56.5547L24.8435 59.2225V85.2116C24.8435 86.988 25.4783 88.6495 26.5623 89.9603C28.7412 92.5952 29.9146 95.8868 29.9146 99.2728V125.713C29.9146 131.034 25.4951 135.348 20.0435 135.348H9.62598V136.09C9.62598 138.391 11.5376 140.257 13.8958 140.257H15.4722C17.8303 140.257 19.7419 138.391 19.7419 136.09V137.628C19.7419 139.93 21.6536 141.796 24.0117 141.796H25.5884C27.9465 141.796 29.8582 139.93 29.8582 137.628V136.089C29.8582 138.391 31.7698 140.257 34.1279 140.257H35.7046C38.0627 140.257 39.9744 138.391 39.9744 136.089V111.277C39.9744 109.317 41.6023 107.728 43.6106 107.728H49.7239L49.7256 107.656C49.7288 103.022 46.5405 98.9652 41.9541 97.7657Z" fill="#904F40"/>
<path d="M19.7444 127.571V136.106C19.7361 138.236 18.0903 139.989 15.9717 140.229V127.571C15.9717 126.555 16.8162 125.73 17.8579 125.73C18.8999 125.73 19.7444 126.555 19.7444 127.571ZM27.9744 125.73C26.9324 125.73 26.0881 126.555 26.0881 127.571V141.768C28.2122 141.528 29.8608 139.766 29.8608 137.629V127.571C29.8608 126.555 29.0164 125.73 27.9744 125.73ZM7.7417 125.73C6.69971 125.73 5.85547 126.555 5.85547 127.571V135.495H6.22461C8.09619 135.495 9.61499 134.021 9.62817 132.197V127.571C9.62793 126.555 8.78369 125.73 7.7417 125.73Z" fill="#904F40"/>
<path d="M71.6372 107.728H64.7783L61.7957 136.089H79.9973C81.926 136.089 83.8142 136.674 85.3621 137.798C87.9031 139.641 91.0503 140.734 94.4602 140.734H114.723C116.603 140.734 118.127 139.246 118.127 137.412V135.721C118.127 133.886 116.603 132.399 114.723 132.399H118.736C121.094 132.399 123.006 130.533 123.006 128.232V126.693C123.006 124.391 121.094 122.526 118.736 122.526H120.313C122.671 122.526 124.582 120.66 124.582 118.358V116.82C124.582 114.518 122.671 112.652 120.313 112.652H118.736C121.094 112.652 123.006 110.787 123.006 108.485V106.946C123.006 104.645 121.094 102.779 118.736 102.779H93.3135C91.3052 102.779 89.6772 101.19 89.6772 99.2299V93.2634L89.6035 93.2617C84.8555 93.2593 80.6985 96.3713 79.4695 100.847L79.1187 102.125C78.2117 105.43 75.1431 107.728 71.6372 107.728Z" fill="#FFECE4"/>
<path d="M120.309 112.651H118.732C121.09 112.651 123.002 110.785 123.002 108.483V106.945C123.002 104.643 121.09 102.777 118.732 102.777H108.063V126.189C108.063 131.51 103.643 135.823 98.1919 135.823H84.396C80.9861 135.823 77.8389 134.731 75.2978 132.887C73.75 131.764 71.8618 131.178 69.9331 131.178H69.1267L65.6265 136.088H79.9934C81.9336 136.088 83.8257 136.69 85.3853 137.816C87.9216 139.648 91.0586 140.732 94.4563 140.732H114.719C116.599 140.732 118.123 139.245 118.123 137.41V135.72C118.123 133.885 116.599 132.398 114.719 132.398H118.732C121.09 132.398 123.002 130.532 123.002 128.231V126.692C123.002 124.39 121.091 122.524 118.732 122.524H120.309C122.667 122.524 124.579 120.659 124.579 118.357V116.818C124.579 114.517 122.667 112.651 120.309 112.651Z" fill="#FFDDCE"/>
<path d="M110.005 122.526H118.749C120.932 122.534 122.728 124.141 122.974 126.208H110.005C108.963 126.208 108.118 125.384 108.118 124.367C108.118 123.351 108.963 122.526 110.005 122.526ZM108.118 114.494C108.118 115.511 108.963 116.335 110.004 116.335H124.55C124.304 114.261 122.499 112.652 120.309 112.652H110.004C108.963 112.653 108.118 113.477 108.118 114.494ZM108.118 134.241C108.118 135.258 108.963 136.082 110.004 136.082H118.123V135.722C118.123 133.895 116.613 132.413 114.744 132.4H110.004C108.963 132.4 108.118 133.224 108.118 134.241Z" fill="#FFCBBE"/>
<path d="M29.8586 137.628V127.571C29.8586 127.423 29.8406 127.279 29.8069 127.141C29.4248 129.651 28.0508 131.845 26.0862 133.331V141.767C28.21 141.527 29.8586 139.765 29.8586 137.628Z" fill="#784033"/>
<path d="M19.7459 136.106V135.348H15.9731V140.229C18.0918 139.989 19.7376 138.236 19.7459 136.106Z" fill="#784033"/>
<path d="M92.7791 87.3516C92.7239 87.283 92.6692 87.2141 92.6152 87.1445H92.0811C92.3115 87.2191 92.5442 87.2882 92.7791 87.3516Z" fill="#D59B8B"/>
<path d="M45.4009 49.3638C43.8828 49.3638 42.4468 49.7946 41.2327 50.5516C37.4258 52.9249 33.0632 54.3131 28.5461 54.3131H1.57739V55.0551C1.57739 57.3567 3.48901 59.2224 5.84717 59.2224H31.2695C33.2776 59.2224 34.9058 60.8113 34.9058 62.7714V68.7379L34.9797 68.7396C39.7278 68.742 43.8848 65.63 45.1138 61.1539L45.4646 59.8762C46.3718 56.571 49.4407 54.2728 52.9465 54.2728H54.7417L57.0713 49.3633H45.4009V49.3638Z" fill="#FFE4C1"/>
<path d="M59.6182 137.1H68.3118C68.7627 137.1 69.1282 136.743 69.1282 136.303V107.514C69.1282 107.074 68.7627 106.717 68.3118 106.717H59.6182C59.1672 106.717 58.8018 107.074 58.8018 107.514V136.303C58.8018 136.743 59.1672 137.1 59.6182 137.1Z" fill="#82B7F9"/>
<path d="M58.0239 58.9162C56.2104 58.9162 54.7402 57.4813 54.7402 55.7113V24.4705C54.7402 22.7006 56.2104 21.2656 58.0239 21.2656C59.8374 21.2656 61.3076 22.7006 61.3076 24.4705V55.7113C61.3074 57.4813 59.8374 58.9162 58.0239 58.9162Z" fill="#82B7F9"/>
<path d="M132.213 15.5313L135.811 12.0777C136.756 11.1705 136.756 9.69973 135.811 8.79254C134.865 7.88534 133.333 7.88534 132.388 8.79253L128.79 12.2461C127.845 13.1533 127.845 14.6241 128.79 15.5313C129.735 16.4383 131.268 16.4383 132.213 15.5313Z" fill="#2C77E7"/>
<path d="M137.752 24.2732L142.364 22.2091C143.575 21.667 144.1 20.2848 143.535 19.1222C142.97 17.9594 141.53 17.4564 140.319 17.9987L135.707 20.0628C134.495 20.6049 133.971 21.987 134.536 23.1496C135.101 24.3124 136.541 24.8153 137.752 24.2732Z" fill="#2C77E7"/>
<path d="M119.686 6.92994L121.836 2.50363C122.401 1.34092 123.841 0.83791 125.052 1.38012C126.264 1.92221 126.788 3.30435 126.223 4.46694L124.072 8.89325C123.508 10.056 122.068 10.559 120.856 10.0168C119.645 9.47479 119.121 8.09265 119.686 6.92994Z" fill="#2C77E7"/>
</svg>
