<svg width="16" height="19" viewBox="0 0 16 19" fill="none" xmlns="http://www.w3.org/2000/svg">
<path d="M10.5 0.833984H5.5V2.50065H10.5V0.833984ZM7.16667 11.6673H8.83333V6.66732H7.16667V11.6673ZM13.8583 6.15898L15.0417 4.97565C14.6833 4.55065 14.2917 4.15065 13.8667 3.80065L12.6833 4.98398C11.3917 3.95065 9.76667 3.33398 8 3.33398C3.85833 3.33398 0.5 6.69232 0.5 10.834C0.5 14.9757 3.85 18.334 8 18.334C12.15 18.334 15.5 14.9757 15.5 10.834C15.5 9.06732 14.8833 7.44232 13.8583 6.15898ZM8 16.6673C4.775 16.6673 2.16667 14.059 2.16667 10.834C2.16667 7.60898 4.775 5.00065 8 5.00065C11.225 5.00065 13.8333 7.60898 13.8333 10.834C13.8333 14.059 11.225 16.6673 8 16.6673Z" fill="black"/>
</svg>
