<svg width="138" height="143" viewBox="0 0 138 143" fill="none" xmlns="http://www.w3.org/2000/svg">
<path d="M17.57 25.3075L13.6208 21.3563C12.5834 20.3184 10.9015 20.3184 9.86413 21.3563C8.82674 22.3942 8.82674 24.077 9.86413 25.1149L13.8133 29.066C14.8507 30.1039 16.5326 30.1039 17.57 29.066C18.6072 28.028 18.6072 26.3453 17.57 25.3075Z" fill="#2C77E7"/>
<path d="M27.5616 19.2252L25.2013 14.1613C24.5814 12.8311 23.0009 12.2556 21.6714 12.8759C20.3418 13.4961 19.7666 15.0773 20.3866 16.4074L22.7469 21.4713C23.3669 22.8015 24.9474 23.377 26.2769 22.7566C27.6065 22.1365 28.1816 20.5554 27.5616 19.2252Z" fill="#2C77E7"/>
<path d="M7.73079 39.0634L2.66909 36.7019C1.33947 36.0817 0.76426 34.5004 1.3843 33.1702C2.00421 31.84 3.58475 31.2645 4.91423 31.8848L9.97593 34.2463C11.3055 34.8665 11.8808 36.4479 11.2607 37.778C10.6409 39.1081 9.0604 39.6836 7.73079 39.0634Z" fill="#2C77E7"/>
<g clip-path="url(#clip0)">
<path d="M74.5021 143C107.364 143 134.004 116.361 134.004 83.5001C134.004 50.6391 107.364 24 74.5021 24C41.6402 24 15.0005 50.6391 15.0005 83.5001C15.0005 116.361 41.6402 143 74.5021 143Z" fill="#9DC6FB"/>
<path d="M96.1807 28.0742C113.131 38.5593 124.424 57.3171 124.424 78.7125C124.424 111.574 97.7847 138.213 64.9229 138.213C57.2732 138.213 49.9605 136.769 43.2427 134.139C52.3264 139.758 63.0346 143.001 74.5005 143.001C107.362 143.001 134.002 116.362 134.002 83.5011C134.002 58.2896 118.321 36.7405 96.1807 28.0742Z" fill="#82B7F9"/>
<path d="M102.632 55.5457H127.041C126.389 54.3225 125.695 53.1246 124.962 51.9541H101.617C97.5636 38.6909 91.0753 28.9762 83.4573 24.6696C80.5364 24.2287 77.5459 24 74.5021 24C71.4582 24 68.4678 24.2287 65.5468 24.6696C57.9288 28.9762 51.4408 38.6909 47.3872 51.9544H24.0424C23.3091 53.1248 22.6153 54.3227 21.9631 55.546H46.3722C44.3508 63.3075 43.1213 72.1193 42.9476 81.7044H15.0272C15.0096 82.3008 15.0005 82.8993 15.0005 83.5001C15.0005 84.1009 15.0096 84.6994 15.0272 85.2958H42.972C43.1057 94.5334 44.2855 103.442 46.3762 111.454H21.9631C22.6153 112.677 23.3091 113.875 24.0424 115.046H47.3926C48.8225 119.718 50.5759 124.032 52.6259 127.858C56.2876 134.692 60.6996 139.605 65.5113 142.325C68.4434 142.77 71.4459 143 74.5021 143C77.5583 143 80.5608 142.77 83.4928 142.325C88.3046 139.605 92.7165 134.692 96.3782 127.858C98.428 124.032 100.182 119.718 101.612 115.046H124.962C125.695 113.875 126.389 112.677 127.041 111.454H102.628C104.719 103.442 105.899 94.5334 106.033 85.2958H133.977C133.995 84.6994 134.004 84.1009 134.004 83.5001C134.004 82.8993 133.995 82.3008 133.977 81.7044H106.057C105.883 72.1191 104.653 63.3072 102.632 55.5457ZM72.7063 141.08C66.4831 140.234 60.5348 135.014 55.7918 126.162C54.0031 122.823 52.4505 119.086 51.1533 115.046H72.7063V141.08ZM72.7063 111.454H50.0892C47.9272 103.516 46.7034 94.5897 46.5637 85.296H72.7063V111.454ZM72.7063 81.7044H46.6418C46.6632 72.4949 47.9225 63.5162 50.1013 55.546H72.7063V81.7044ZM72.7063 51.9544H51.1679C53.061 46.065 55.4764 40.8511 58.2839 36.6858C61.3534 32.132 66.2585 26.78 72.7063 25.9189V51.9544ZM76.2978 25.9186C82.7456 26.7798 87.6507 32.132 90.7202 36.6856C93.5277 40.8508 95.9431 46.0648 97.8362 51.9541H76.2978V25.9186ZM76.2978 55.5457H98.9028C101.082 63.516 102.34 72.4947 102.362 81.7042H76.2978V55.5457ZM93.2125 126.162C88.4694 135.014 82.5211 140.234 76.298 141.08V115.046H97.8511C96.5537 119.086 95.0013 122.823 93.2125 126.162ZM98.9151 111.454H76.298V85.2958H102.441C102.301 94.5894 101.077 103.516 98.9151 111.454Z" fill="#82B7F9"/>
<path d="M124.96 51.9551H118.083C118.675 53.1304 119.23 54.3281 119.746 55.5467H127.039C126.387 54.3232 125.693 53.1256 124.96 51.9551Z" fill="#82B7F9"/>
<path d="M83.4923 142.326C87.7999 139.891 91.7872 135.698 95.2025 129.943C93.0296 131.23 90.7676 132.383 88.428 133.39C84.7149 137.856 80.571 140.5 76.2973 141.081V137.127C75.1122 137.356 73.9147 137.55 72.7056 137.708V141.081C70.3127 140.756 67.9608 139.784 65.7023 138.207C65.4431 138.211 65.1837 138.212 64.9239 138.212C63.242 138.212 61.5767 138.143 59.9302 138.006C61.7108 139.788 63.5784 141.234 65.5108 142.326C68.4429 142.771 71.4454 143.001 74.5016 143.001C77.5578 143.001 80.5603 142.771 83.4923 142.326Z" fill="#82B7F9"/>
<path d="M127.038 111.455H114.611C113.799 112.685 112.942 113.883 112.043 115.047H124.959C125.692 113.876 126.386 112.678 127.038 111.455Z" fill="#82B7F9"/>
<path d="M134.001 83.5008C134.001 82.9 133.992 82.3015 133.974 81.7051H124.349C124.289 82.912 124.194 84.1097 124.063 85.2967H133.974C133.992 84.7001 134.001 84.1016 134.001 83.5008Z" fill="#82B7F9"/>
</g>
<g clip-path="url(#clip1)">
<path d="M106.427 0.517578C99.9848 0.517578 92.6194 10.1675 92.6194 22.0281C92.6194 37.3528 105.553 59.6694 106.013 60.6128C106.119 60.8289 106.269 60.9518 106.427 60.9518C106.728 60.9518 107.016 60.8288 107.217 60.6128C108.095 59.6694 128.732 37.3528 128.732 22.0281C128.732 10.1675 118.726 0.517578 106.427 0.517578ZM106.427 33.2955C99.9746 33.2955 94.7437 28.251 94.7437 22.0281C94.7437 15.8051 99.9746 10.7607 106.427 10.7607C112.88 10.7607 118.111 15.8052 118.111 22.0282C118.111 28.2512 112.88 33.2955 106.427 33.2955Z" fill="#FF5F2A"/>
<path d="M106.018 60.6129C105.558 59.6696 92.6238 37.3529 92.6238 22.0282C92.6237 10.1675 99.9892 0.517578 106.432 0.517578C94.1323 0.517578 84.1267 10.1675 84.1267 22.0281C84.1267 37.3528 104.763 59.6694 105.642 60.6128C105.843 60.8289 106.13 60.9518 106.432 60.9518C106.274 60.9519 106.123 60.8289 106.018 60.6129Z" fill="#FF5F2A"/>
</g>
<defs>
<clipPath id="clip0">
<rect width="119.003" height="119" fill="white" transform="translate(15.0005 24)"/>
</clipPath>
<clipPath id="clip1">
<rect width="62.6661" height="60.4343" fill="white" transform="translate(74.3938 0.517578)"/>
</clipPath>
</defs>
</svg>
