<svg width="135" height="134" viewBox="0 0 135 134" fill="none" xmlns="http://www.w3.org/2000/svg">
<path d="M17.59 14.6814L13.6346 10.724C12.5956 9.68449 10.9111 9.68449 9.87208 10.724C8.83306 11.7636 8.83306 13.449 9.87208 14.4885L13.8275 18.4459C14.8665 19.4854 16.551 19.4854 17.59 18.4459C18.6289 17.4062 18.6289 15.7208 17.59 14.6814Z" fill="#2C77E7"/>
<path d="M27.602 8.58841L25.238 3.51635C24.6171 2.18401 23.0341 1.60762 21.7025 2.22893C20.3708 2.85011 19.7947 4.43388 20.4157 5.76609L22.7798 10.8381C23.4007 12.1705 24.9837 12.7469 26.3153 12.1256C27.647 11.5044 28.2229 9.92074 27.602 8.58841Z" fill="#2C77E7"/>
<path d="M7.74042 28.4576L2.67079 26.0924C1.33909 25.4712 0.762974 23.8874 1.38399 22.5552C2.00487 21.2228 3.58789 20.6464 4.91945 21.2677L9.98909 23.633C11.3208 24.2541 11.8969 25.8379 11.2759 27.1702C10.6551 28.5024 9.07212 29.0788 7.74042 28.4576Z" fill="#2C77E7"/>
<g clip-path="url(#clip0)">
<path d="M74.615 133.213C107.528 133.213 134.21 106.532 134.21 73.6184C134.21 40.705 107.528 14.0234 74.615 14.0234C41.7016 14.0234 15.02 40.705 15.02 73.6184C15.02 106.532 41.7016 133.213 74.615 133.213Z" fill="#9DC6FB"/>
<path d="M96.3302 18.1035C113.308 28.6053 124.618 47.393 124.618 68.8225C124.618 101.736 97.9367 128.417 65.0233 128.417C57.3616 128.417 50.0375 126.972 43.3091 124.338C52.4071 129.966 63.1321 133.214 74.616 133.214C107.529 133.214 134.211 106.532 134.211 73.6188C134.211 48.367 118.506 26.7837 96.3302 18.1035Z" fill="#82B7F9"/>
<path d="M102.789 45.6195H127.236C126.583 44.3943 125.888 43.1945 125.154 42.0221H101.772C97.7126 28.7378 91.2142 19.0075 83.5842 14.6941C80.6587 14.2525 77.6636 14.0234 74.615 14.0234C71.5663 14.0234 68.5712 14.2525 65.6457 14.6941C58.0157 19.0075 51.5175 28.7378 47.4576 42.0223H24.0761C23.3417 43.1947 22.6468 44.3945 21.9936 45.6197H46.441C44.4164 53.3936 43.1849 62.2194 43.011 71.8198H15.0468C15.0291 72.4172 15.02 73.0166 15.02 73.6184C15.02 74.2201 15.0291 74.8196 15.0468 75.4169H43.0355C43.1693 84.6693 44.351 93.5925 46.4449 101.617H21.9936C22.6468 102.842 23.3417 104.042 24.0761 105.214H47.4629C48.8951 109.894 50.6513 114.215 52.7045 118.047C56.3719 124.892 60.7908 129.812 65.6101 132.537C68.5467 132.982 71.554 133.213 74.615 133.213C77.6759 133.213 80.6832 132.982 83.6198 132.537C88.4391 129.812 92.858 124.892 96.5254 118.047C98.5784 114.215 100.335 109.894 101.767 105.214H125.154C125.888 104.042 126.583 102.842 127.236 101.617H102.785C104.879 93.5922 106.061 84.6693 106.195 75.4169H134.183C134.201 74.8196 134.21 74.2201 134.21 73.6184C134.21 73.0166 134.201 72.4172 134.183 71.8198H106.219C106.045 62.2192 104.814 53.3933 102.789 45.6195ZM72.8164 131.29C66.5834 130.443 60.6257 125.214 55.8754 116.348C54.0838 113.004 52.5287 109.261 51.2295 105.214H72.8164V131.29ZM72.8164 101.617H50.1638C47.9984 93.6658 46.7727 84.7256 46.6328 75.4172H72.8164V101.617ZM72.8164 71.8198H46.711C46.7324 62.5956 47.9937 53.6026 50.1759 45.6197H72.8164V71.8198ZM72.8164 42.0223H51.2442C53.1403 36.1236 55.5595 30.9014 58.3714 26.7295C61.4456 22.1684 66.3585 16.8079 72.8164 15.9454V42.0223ZM76.4135 15.9451C82.8714 16.8076 87.7843 22.1684 90.8585 26.7293C93.6704 30.9011 96.0896 36.1234 97.9857 42.0221H76.4135V15.9451ZM76.4135 45.6195H99.054C101.236 53.6024 102.497 62.5954 102.518 71.8196H76.4135V45.6195ZM93.3548 116.348C88.6042 125.214 82.6465 130.443 76.4137 131.29V105.214H98.0006C96.7012 109.261 95.1463 113.004 93.3548 116.348ZM99.0663 101.617H76.4137V75.4169H102.597C102.457 84.7254 101.232 93.6658 99.0663 101.617Z" fill="#82B7F9"/>
<path d="M125.154 42.0234H118.266C118.86 43.2007 119.416 44.4003 119.932 45.6208H127.237C126.584 44.3954 125.889 43.1958 125.154 42.0234Z" fill="#82B7F9"/>
<path d="M83.6192 132.538C87.9335 130.098 91.9271 125.899 95.3477 120.135C93.1713 121.424 90.9058 122.578 88.5625 123.587C84.8436 128.06 80.6932 130.708 76.4128 131.29V127.329C75.2258 127.559 74.0265 127.754 72.8155 127.912V131.29C70.4189 130.965 68.0632 129.991 65.8012 128.412C65.5416 128.415 65.2818 128.417 65.0216 128.417C63.3371 128.417 61.6691 128.347 60.02 128.21C61.8034 129.995 63.6739 131.443 65.6094 132.538C68.5461 132.983 71.5533 133.214 74.6143 133.214C77.6753 133.214 80.6825 132.983 83.6192 132.538Z" fill="#82B7F9"/>
<path d="M127.233 101.619H114.787C113.973 102.851 113.116 104.051 112.215 105.216H125.151C125.885 104.044 126.58 102.844 127.233 101.619Z" fill="#82B7F9"/>
<path d="M134.209 73.6189C134.209 73.0171 134.2 72.4177 134.182 71.8203H124.542C124.482 73.0292 124.386 74.2288 124.255 75.4176H134.182C134.2 74.8201 134.209 74.2206 134.209 73.6189Z" fill="#82B7F9"/>
<path d="M107.437 66.9448C107.437 57.4851 99.7679 49.8164 90.3081 49.8164C83.7178 49.8164 77.9969 53.5383 75.1324 58.995C74.9119 59.4149 74.3174 59.4149 74.0969 58.995C71.2326 53.5383 65.5115 49.8164 58.9211 49.8164C49.4614 49.8164 41.7927 57.4851 41.7927 66.9448C41.7927 85.6316 71.0173 103.847 74.3132 105.842C74.4987 105.954 74.7303 105.954 74.9159 105.842C78.212 103.847 107.437 85.6313 107.437 66.9448Z" fill="#FF5F2A"/>
<path d="M92.7839 49.9941C95.9087 53.097 97.8437 57.3967 97.8437 62.1485C97.8437 79.5958 72.3671 96.6323 66.3052 100.439C70.2505 103.339 73.3621 105.266 74.3132 105.842C74.4988 105.954 74.7304 105.954 74.9159 105.842C78.2118 103.847 107.436 85.6317 107.436 66.9449C107.437 58.326 101.07 51.194 92.7839 49.9941Z" fill="#DD636E"/>
</g>
<defs>
<clipPath id="clip0">
<rect width="119.19" height="119.19" fill="white" transform="translate(15.02 14.0234)"/>
</clipPath>
</defs>
</svg>
