<svg width="16" height="16" viewBox="0 0 16 16" fill="none" xmlns="http://www.w3.org/2000/svg">
<path d="M8 0C3.584 0 0 3.584 0 8C0 12.416 3.584 16 8 16C12.416 16 16 12.416 16 8C16 3.584 12.416 0 8 0ZM13.088 11.864C11.944 10.472 9.168 10 8 10C6.832 10 4.056 10.472 2.912 11.864C2.096 10.792 1.6 9.456 1.6 8C1.6 4.472 4.472 1.6 8 1.6C11.528 1.6 14.4 4.472 14.4 8C14.4 9.456 13.904 10.792 13.088 11.864ZM8 3.2C6.448 3.2 5.2 4.448 5.2 6C5.2 7.552 6.448 8.8 8 8.8C9.552 8.8 10.8 7.552 10.8 6C10.8 4.448 9.552 3.2 8 3.2Z" fill="#25282B"/>
</svg>
