<svg width="45" height="44" viewBox="0 0 45 44" fill="none" xmlns="http://www.w3.org/2000/svg">
<g clip-path="url(#clip0)">
<path d="M41.7546 0H3.24543C1.45294 0 0 1.42065 0 3.17331V40.8267C0 42.5793 1.45294 44 3.24543 44H41.7546C43.5471 44 45 42.5793 45 40.8267V3.17331C45 1.42065 43.5471 0 41.7546 0V0ZM15.9618 33.2578H10.482V17.1382H15.9618V33.2578ZM13.222 14.937H13.1863C11.3475 14.937 10.1582 13.6993 10.1582 12.1524C10.1582 10.5706 11.3839 9.36719 13.2584 9.36719C15.133 9.36719 16.2865 10.5706 16.3223 12.1524C16.3223 13.6993 15.133 14.937 13.222 14.937ZM35.7207 33.2578H30.2416V24.6342C30.2416 22.4669 29.4482 20.9889 27.4655 20.9889C25.9518 20.9889 25.0502 21.9859 24.654 22.9483C24.5091 23.2928 24.4738 23.7741 24.4738 24.2559V33.2578H18.9943C18.9943 33.2578 19.0661 18.6505 18.9943 17.1382H24.4738V19.4205C25.202 18.3221 26.5049 16.7598 29.4121 16.7598C33.0173 16.7598 35.7207 19.0637 35.7207 24.0148V33.2578Z" fill="#2C77E7"/>
</g>
<defs>
<clipPath id="clip0">
<rect width="45" height="44" fill="white"/>
</clipPath>
</defs>
</svg>
