<svg width="24" height="24" viewBox="0 0 24 24" fill="none" xmlns="http://www.w3.org/2000/svg">
<path d="M19 19H5V5H12V3H5C3.89 3 3 3.9 3 5V19C3 20.1 3.89 21 5 21H19C20.1 21 21 20.1 21 19V12H19V19Z" fill="black"/>
<g clip-path="url(#clip0_8890_122362)">
<path d="M9 12.4997V14.9997H11.5L18.8733 7.62638L16.3733 5.12638L9 12.4997ZM20.8067 5.69305C21.0667 5.43305 21.0667 5.01305 20.8067 4.75305L19.2467 3.19305C18.9867 2.93305 18.5667 2.93305 18.3067 3.19305L17.0867 4.41305L19.5867 6.91305L20.8067 5.69305Z" fill="black"/>
</g>
<defs>
<clipPath id="clip0_8890_122362">
<rect width="16" height="16" fill="white" transform="translate(7 1)"/>
</clipPath>
</defs>
</svg>
