<svg width="148" height="148" viewBox="0 0 148 148" fill="none" xmlns="http://www.w3.org/2000/svg">
<path d="M123.211 18.0587L126.809 14.605C127.754 13.6978 127.754 12.227 126.809 11.3198C125.864 10.4125 124.331 10.4125 123.386 11.3198L119.788 14.7734C118.843 15.6806 118.843 17.1514 119.788 18.0587C120.733 18.9657 122.266 18.9658 123.211 18.0587Z" fill="#2C77E7"/>
<path d="M128.751 26.7987L133.362 24.7345C134.574 24.1923 135.098 22.8101 134.533 21.6474C133.968 20.4846 132.528 19.9815 131.317 20.5238L126.705 22.588C125.494 23.1301 124.97 24.5124 125.535 25.6751C126.1 26.8379 127.539 27.3408 128.751 26.7987Z" fill="#2C77E7"/>
<path d="M110.684 9.45533L112.835 5.02902C113.399 3.86631 114.84 3.3633 116.051 3.90551C117.262 4.4476 117.786 5.82974 117.221 6.99233L115.071 11.4186C114.506 12.5814 113.066 13.0844 111.855 12.5421C110.643 12.0002 110.119 10.618 110.684 9.45533Z" fill="#2C77E7"/>
<path d="M54.6885 47.6471C51.9227 47.578 49.202 46.8137 46.7814 45.4166L34.5859 38.3887L20.2539 52.7343L16.1255 70.363L27.0411 76.6533L27.0075 76.6221L58.6131 105.997L71.7813 112.934L72.7254 113.432L80.9006 118.152C83.3285 119.554 86.4339 118.69 87.7893 116.236L89.6162 112.928C90.9357 110.539 90.0998 107.534 87.7361 106.169L94.3863 110.009C96.8141 111.41 99.9195 110.546 101.275 108.093L103.102 104.785C104.421 102.396 103.585 99.3907 101.222 98.026L104.551 99.948C106.947 101.331 110.01 100.51 111.393 98.1148L113.282 94.8429C114.665 92.4477 113.845 89.3848 111.45 88.0016L113.035 88.9165C115.482 90.3294 118.612 89.4403 119.951 86.9523L121.741 83.6244C123.024 81.2399 122.18 78.2674 119.835 76.9138L93.9984 57.5931L84.3463 56.4242L54.6885 47.6471Z" fill="#FFF1DD"/>
<path d="M119.836 76.9129L100.481 65.7383L80.4424 102.016C78.6863 105.196 75.7885 107.579 72.3472 108.693C69.7566 110.487 69.2331 110.487 71.7815 112.934L72.7256 113.431L80.9008 118.151C83.3287 119.553 86.4341 118.689 87.7895 116.235L89.6163 112.928C90.9359 110.539 90.0999 107.533 87.7363 106.169L94.3865 110.008C96.8143 111.41 99.9197 110.546 101.275 108.092L103.102 104.785C104.422 102.396 103.586 99.3901 101.222 98.0254L104.551 99.9474C106.947 101.331 110.01 100.51 111.393 98.1142L113.282 94.8423C114.665 92.4471 113.845 89.3842 111.45 88.001L113.036 88.9159C115.482 90.3288 118.612 89.4397 119.951 86.9517L121.742 83.6237C123.025 81.2393 122.18 78.2668 119.836 76.9129Z" fill="#FFE4C1"/>
<path d="M88.2779 90.5534L101.223 98.0271C103.456 99.3163 104.325 102.07 103.302 104.385L86.0446 94.4216C84.9763 93.8051 84.6103 92.439 85.2272 91.3709C85.8437 90.3025 87.2096 89.9363 88.2779 90.5534ZM92.1248 79.4239C91.5079 80.4923 91.8739 81.8581 92.9423 82.4747L113.529 94.3604C114.546 92.0603 113.694 89.3174 111.479 88.0189L95.1758 78.6065C94.1072 77.9893 92.7411 78.3555 92.1248 79.4239ZM87.7371 106.17L87.581 106.08L81.3404 102.477C80.2721 101.86 78.906 102.226 78.2897 103.294C77.6728 104.363 78.0388 105.729 79.1071 106.345L89.8163 112.528C90.8396 110.213 89.9701 107.46 87.7371 106.17Z" fill="#FFE4C1"/>
<path d="M88.2779 90.5534L101.223 98.0271C103.456 99.3163 104.325 102.07 103.302 104.385L86.0446 94.4216C84.9763 93.8051 84.6103 92.439 85.2272 91.3709C85.8437 90.3025 87.2096 89.9363 88.2779 90.5534ZM92.1248 79.4239C91.5079 80.4923 91.8739 81.8581 92.9423 82.4747L113.529 94.3604C114.546 92.0603 113.694 89.3174 111.479 88.0189L95.1758 78.6065C94.1072 77.9893 92.7411 78.3555 92.1248 79.4239ZM87.7371 106.17L87.581 106.08L81.3404 102.477C80.2721 101.86 78.906 102.226 78.2897 103.294C77.6728 104.363 78.0388 105.729 79.1071 106.345L89.8163 112.528C90.8396 110.213 89.9701 107.46 87.7371 106.17Z" fill="#FFE4C1"/>
<path d="M35.0253 87.7577L42.7935 83.2726C46.0926 81.3679 47.2229 77.1494 45.3182 73.8503C43.4136 70.5512 39.195 69.421 35.8959 71.3256L28.1277 75.8107C25.7322 77.1939 24.9113 80.2571 26.2944 82.6525L28.1835 85.9244C29.5666 88.3199 32.6298 89.1405 35.0253 87.7577Z" fill="#C18678"/>
<path d="M42.9896 99.0877L48.2685 96.0401C51.5676 94.1355 52.6978 89.9169 50.7932 86.6179C48.8885 83.3188 44.67 82.1886 41.3709 84.0932L36.092 87.1408C33.6966 88.5239 32.8756 91.5871 34.2588 93.9826L36.1478 97.2545C37.5307 99.65 40.5939 100.471 42.9896 99.0877Z" fill="#C18678"/>
<path d="M53.692 108.84L58.6153 105.997C61.9144 104.093 63.0446 99.874 61.14 96.5749C59.2354 93.2758 55.0168 92.1456 51.7177 94.0502L46.7944 96.8929C44.399 98.276 43.578 101.339 44.9612 103.735L46.8502 107.007C48.2334 109.402 51.2966 110.223 53.692 108.84Z" fill="#C18678"/>
<path d="M65.5126 117.944L69.0134 115.923C72.3125 114.018 73.4427 109.8 71.5381 106.501C69.6335 103.202 65.4149 102.071 62.1158 103.976L58.615 105.997C56.2195 107.38 55.3986 110.443 56.7817 112.839L58.6708 116.111C60.0539 118.506 63.1171 119.327 65.5126 117.944Z" fill="#C18678"/>
<path d="M17.9794 29.4539L0.0745677 60.4657C-0.0789245 60.7317 0.0121302 61.0719 0.278068 61.2254L9.12193 66.3314L19.6872 53.0492L27.5829 34.3561L18.739 29.2501C18.4728 29.0969 18.1329 29.188 17.9794 29.4539Z" fill="#FFF1DD"/>
<path d="M112.817 38.3895L100.801 45.3114C97.2455 47.3635 92.865 47.3632 89.3098 45.3105L79.8557 39.8522C76.2459 37.768 71.7987 37.768 68.1889 39.8522L49.956 50.379C48.948 50.9608 48.6026 52.2498 49.1845 53.2577L49.8646 54.4357C52.7165 59.3752 59.0334 61.0673 63.9732 58.2157C65.1561 57.533 66.2129 56.923 66.952 56.4964C68.2253 55.7616 69.8539 55.9709 70.8575 57.0453C72.4757 58.7777 74.7801 59.8608 77.3374 59.8608C80.1885 59.8608 82.725 58.5149 84.3469 56.4238L119.632 76.7955L131.144 70.1332L112.817 38.3895Z" fill="#C18678"/>
<path d="M112.819 38.3906L106.46 42.0533L115.97 58.5238C117.773 61.6474 116.705 65.6417 113.583 67.4483L108.519 70.3792L119.633 76.796L133.86 68.5627L112.819 38.3906Z" fill="#B46E59"/>
<path d="M80.3534 62.2238C79.12 62.2238 78.1201 61.224 78.1201 59.9905C78.1201 58.7571 79.12 57.7572 80.3534 57.7572C83.4082 57.7572 86.0555 55.6905 86.7905 52.731C87.0877 51.5337 88.2994 50.8036 89.4965 51.1019C90.6935 51.3993 91.4231 52.6108 91.1256 53.8078C89.8948 58.7629 85.4652 62.2238 80.3534 62.2238Z" fill="#B46E59"/>
<path d="M35.0493 37.5893L13.7408 74.4965C12.625 76.4291 10.1535 77.0914 8.22083 75.9756C6.28816 74.8598 5.62591 72.3883 6.74169 70.4557L28.0499 33.5485C29.1657 31.6158 31.6372 30.9536 33.5699 32.0693C35.5028 33.1854 36.1651 35.6566 35.0493 37.5893Z" fill="#82B7F9"/>
<path d="M86.934 90.2637L85.1592 93.477C85.3479 93.8588 85.6474 94.191 86.044 94.4199L103.301 104.383C104.325 102.068 103.455 99.3146 101.222 98.0254L88.2773 90.5517C87.8544 90.3074 87.385 90.2172 86.934 90.2637Z" fill="#F1D0A5"/>
<path d="M93.5022 78.3761L91.9326 81.2176C92.0956 81.7289 92.4422 82.1833 92.9438 82.4727L113.53 94.3581C114.548 92.058 113.696 89.3154 111.48 88.0166L95.1773 78.6042C94.6492 78.2995 94.0489 78.2347 93.5022 78.3761Z" fill="#F1D0A5"/>
<path d="M87.7377 106.169L81.341 102.476C81.0283 102.295 80.6898 102.199 80.3522 102.18C79.7324 103.268 78.9777 104.26 78.1128 105.137C78.2819 105.628 78.6221 106.064 79.1078 106.344L89.8169 112.527C90.8402 110.212 89.9707 107.458 87.7377 106.169Z" fill="#F1D0A5"/>
<path d="M112.001 36.499L131.447 69.7458C131.589 69.9889 131.904 70.0722 132.15 69.9318L144.743 62.755C144.99 62.6147 145.074 62.3039 144.932 62.0607L125.743 29.2542C125.601 29.0111 125.286 28.9278 125.04 29.0682L112.001 36.499Z" fill="#82B7F9"/>
</svg>
