<svg width="125" height="118" viewBox="0 0 125 118" fill="none" xmlns="http://www.w3.org/2000/svg">
<g clip-path="url(#clip0)">
<path d="M90.6851 72.2078L91.2368 73.7799C91.551 73.7229 110.547 75.2189 110.825 75.8326C110.919 75.4973 108.791 60.0159 110.142 59.8164L114.429 44.7122C115.045 42.5427 113.681 40.3128 111.383 39.7314C109.084 39.15 106.722 40.4377 106.107 42.607L100.123 63.6883C100.004 64.1082 99.6005 64.4001 99.1401 64.4001C98.6795 64.4001 98.2765 64.1082 98.1573 63.6883L92.1734 42.607C91.5576 40.4375 89.1954 39.15 86.8974 39.7314C84.5992 40.3128 83.2354 42.5427 83.8513 44.7122L89.0501 63.0283C89.9033 66.0348 90.4503 69.1085 90.6851 72.2078Z" fill="#F1B986"/>
<path d="M118.831 117.999C119.058 117.999 119.243 117.825 119.243 117.61V99.8489C119.243 97.6976 119.968 95.5887 121.371 93.8938V93.8563C123.639 91.1019 124.989 87.6411 124.989 83.8827V71.8431C124.989 73.3208 116.373 73.3208 116.373 71.8431V71.8359C116.373 73.3137 107.758 73.3137 107.758 71.8359V72.0493C107.758 72.4127 107.707 72.765 107.612 73.1003C107.335 72.4867 106.688 72.0567 105.937 72.0567H99.1497L99.1418 72.0493V72.0567H91.9438C91.612 72.0567 91.2876 72.0864 90.9732 72.1433L90.526 72.244C88.3833 72.8247 86.8154 74.6882 86.8154 76.8976V83.8825C86.8154 87.6507 88.1729 91.1199 90.4511 93.8777C91.8571 95.5797 92.5923 97.6904 92.5923 99.8489V117.61C92.5923 117.825 92.7771 117.999 93.0049 117.999H118.831Z" fill="#F1D0A5"/>
<path d="M124.989 71.8446C124.989 73.3224 118.376 67.9466 114.931 71.8373V79.1364C114.931 82.895 113.58 86.3559 111.312 89.1102V89.1478C109.909 90.8426 109.184 92.9515 109.184 95.1029V101.21C109.184 104.898 106.015 107.885 102.109 107.88L92.5923 107.868V117.611C92.5923 117.826 92.7771 118.001 93.0048 118.001H118.831C119.058 118.001 119.243 117.826 119.243 117.611V99.8507C119.243 97.6994 119.967 95.5905 121.371 93.8956V93.8581C123.639 91.1037 124.989 87.6428 124.989 83.8843V71.8446Z" fill="#F1B986"/>
<path d="M105.772 78.8206C106.246 78.522 106.691 78.177 107.103 77.7883C108.743 76.2395 109.645 74.1802 109.644 71.9901C109.643 70.0635 107.98 68.4961 105.937 68.4961H91.9438C91.3812 68.4961 90.8241 68.559 90.2817 68.6837C90.4612 69.8533 90.5956 71.0292 90.6852 72.2086L90.9733 72.1436C91.2874 72.0867 91.6121 72.057 91.9438 72.057H91.9436H105.871C105.855 73.2713 105.346 74.4106 104.435 75.2713C103.507 76.1471 102.274 76.6294 100.963 76.6294H98.0691C97.0275 76.6294 96.1831 77.4265 96.1831 78.4098C96.1831 79.393 97.0275 80.1901 98.0691 80.1901H100.283C101.503 80.3373 102.608 80.85 103.484 81.6764C105.64 83.7113 105.64 87.0228 103.484 89.0578C102.747 89.7532 102.747 90.8803 103.484 91.576C103.852 91.9235 104.335 92.0974 104.817 92.0974C105.3 92.0974 105.783 91.9235 106.151 91.576C109.777 88.1524 109.777 82.582 106.151 79.1584C106.028 79.0423 105.902 78.9296 105.772 78.8206Z" fill="#F1B986"/>
<path d="M113.538 74.5123H110.591C109.026 74.5123 107.757 73.3143 107.757 71.8363V62.451C107.757 60.9786 109.021 59.7852 110.581 59.7852H113.548C115.108 59.7852 116.372 60.9788 116.372 62.451V71.8363C116.372 73.3143 115.103 74.5123 113.538 74.5123Z" fill="#FFE4C1"/>
<path d="M122.155 74.5187H119.208C117.642 74.5187 116.373 73.3207 116.373 71.8427V64.8514C116.373 63.379 117.638 62.1855 119.197 62.1855H122.165C123.725 62.1855 124.989 63.3792 124.989 64.8514V71.8427C124.989 73.3207 123.72 74.5187 122.155 74.5187Z" fill="#F1D0A5"/>
<path d="M45.5952 36.2331L47.1545 38.1856C47.5035 38.1224 64.091 36.5424 64.3996 37.224C64.5048 36.8516 69.5914 35.4056 69.5914 35.0017C69.5914 35.0017 65.7087 22.689 67.2092 22.4673L71.9719 5.68817C72.6558 3.27808 71.1409 0.800931 68.5879 0.155029C66.0348 -0.490642 63.4107 0.939421 62.7267 3.34951L56.0793 26.7686C55.947 27.235 55.4991 27.5594 54.9875 27.5594C54.4758 27.5594 54.0282 27.235 53.8956 26.7686L47.2482 3.34974C46.564 0.939652 43.9399 -0.490642 41.3868 0.15526C38.8338 0.801162 37.3189 3.27831 38.0028 5.6884L43.7783 26.0358C44.7264 29.3755 45.334 32.7902 45.5952 36.2331Z" fill="#EAAC9D"/>
<path d="M6.99081 60.5672L7.54248 62.1392C7.85664 62.0823 26.8526 63.5783 27.1304 64.1919C27.2251 63.8566 25.0966 48.3753 26.4472 48.1757L30.7344 33.0716C31.3502 30.902 29.9864 28.6722 27.6882 28.0908C25.39 27.5094 23.0278 28.797 22.4122 30.9663L16.4283 52.0479C16.3092 52.4677 15.9059 52.7597 15.4455 52.7597C14.9849 52.7597 14.5819 52.4677 14.4628 52.0479L8.47885 30.9666C7.86298 28.797 5.50081 27.5096 3.20283 28.091C0.904612 28.6724 -0.459185 30.9023 0.156684 33.0718L5.35557 51.3879C6.20895 54.3942 6.75574 57.4681 6.99081 60.5672Z" fill="#904F40"/>
<path d="M64.5603 35.8203C64.5603 35.8203 63.3722 36.0655 62.5377 36.0655H54.9976L54.9891 36.0574V36.0655H46.9925C46.6239 36.0655 46.2636 36.0987 45.9143 36.1618L45.4176 36.2738C43.0373 36.9188 41.2957 38.9892 41.2957 41.4436V49.2031C41.2957 53.3975 42.8093 57.2581 45.3492 60.3245C46.9085 62.2073 47.7133 64.5501 47.7133 66.94V79.8937L77.3198 79.9324V66.9402C77.3198 64.5501 78.1246 62.2073 79.6839 60.3247V60.283C82.203 57.2231 83.703 53.3786 83.703 49.2034V35.8286L64.5603 35.8203Z" fill="#FFCBBE"/>
<path d="M83.7035 35.8284C83.7035 37.47 82.2936 38.801 80.5546 38.801H77.281C75.5417 38.801 74.1321 37.47 74.1321 35.8284V35.8203C74.1321 36.4047 73.9531 36.9497 73.6446 37.4094V44.4555C73.6446 48.631 72.1446 52.4755 69.6254 55.5352V55.5769C68.0661 57.4597 67.2613 59.8025 67.2613 62.1926V67.9179C67.2613 71.9297 63.8131 75.1804 59.5633 75.1749L47.7139 75.1595V79.8942L77.3203 83.2624V66.9404C77.3203 64.5504 78.1251 62.2076 79.6844 60.3247V60.283C82.2035 57.2231 83.7035 53.3786 83.7035 49.2034V35.8284Z" fill="#EAAC9D"/>
<path d="M35.5508 100.995V88.2085C35.5508 86.0572 36.2753 83.9483 37.6789 82.2534V82.2159C39.9466 79.4615 41.2969 76.0007 41.2969 72.2421V60.2025C41.2969 61.6802 32.6811 61.6802 32.6811 60.2025V60.1953C32.6811 61.6731 24.0653 61.6731 24.0653 60.1953V60.4089C24.0653 60.7723 24.0148 61.1246 23.92 61.4599C23.6423 60.8463 22.9959 60.4163 22.2445 60.4163H15.4573L15.4495 60.4089V60.4163H8.25114C7.91941 60.4163 7.595 60.446 7.28059 60.5029L6.8334 60.6036C4.69067 61.1843 3.1228 63.0478 3.1228 65.2572V72.2421C3.1228 76.0177 4.48538 79.4929 6.77188 82.2532C8.17571 83.948 8.89996 86.057 8.89996 88.2083V100.96L35.5508 100.995Z" fill="#A55E4D"/>
<path d="M41.2954 60.2025C41.2954 61.6802 32.6796 61.6802 32.6796 60.2025V60.1953C32.6796 61.1956 32.0981 60.5997 31.2367 61.059V67.4945C31.2367 71.2531 29.8863 74.7139 27.6186 77.4683V77.5058C26.2148 79.2007 25.4905 81.3096 25.4905 83.4609V89.5683C25.4905 93.2556 22.3211 96.2434 18.415 96.2384L8.89844 96.2259V100.961L35.5493 102.767V88.2085C35.5493 86.0572 36.2735 83.9483 37.6773 82.2534V82.2159C39.945 79.4615 41.2954 76.0007 41.2954 72.2421V60.2025Z" fill="#904F40"/>
<path d="M35.5507 101.694L8.8999 96.1484V117.38C8.8999 117.723 9.08273 118 9.30804 118H35.1423C35.3679 118 35.5505 117.722 35.5505 117.38V101.694H35.5507Z" fill="#904F40"/>
<path d="M77.3203 89.4526L47.7139 85.541V117.597C47.7139 117.81 47.8967 117.982 48.122 117.982H76.9119C77.1374 117.982 77.32 117.81 77.32 117.597V89.4526H77.3203Z" fill="#82B7F9"/>
<path d="M67.2611 86.6797V103.888C67.2611 109.05 62.8287 113.234 57.361 113.234H47.7134V117.596C47.7134 117.809 47.8962 117.982 48.1215 117.982H76.9114C77.137 117.982 77.3196 117.809 77.3196 117.596V89.4518L67.2611 86.6797Z" fill="#82B7F9"/>
<path d="M61.5755 43.7978C62.1765 43.4423 62.7392 43.0199 63.253 42.5346C65.0352 40.8511 66.0157 38.6133 66.0143 36.2332C66.0128 34.2017 64.2594 32.5488 62.1055 32.5488L46.5603 32.5491C46.1017 32.5491 45.6462 32.5878 45.1987 32.6645C45.372 33.8471 45.5039 35.035 45.5944 36.2261C45.9078 36.1489 46.2318 36.1097 46.5603 36.1097L62.1055 36.1095C62.1794 36.1095 62.2422 36.1673 62.2422 36.2353C62.2432 37.6637 61.6546 39.0069 60.5847 40.0171C59.5151 41.0274 58.0927 41.5839 56.5795 41.5839L53.3649 41.5841C52.3233 41.5841 51.479 42.3814 51.479 43.3644C51.479 44.3479 52.3233 45.1447 53.3649 45.1447H55.8374C57.2452 45.3116 58.5196 45.9012 59.5283 46.8531C62.0047 49.1911 62.0047 52.9951 59.5283 55.3331C58.7916 56.0283 58.7916 57.1556 59.5283 57.851C59.8966 58.1985 60.3792 58.3725 60.8618 58.3725C61.3444 58.3725 61.8272 58.1985 62.1953 57.8508C66.1424 54.1247 66.1424 48.0618 62.1953 44.3354C61.9966 44.1481 61.7896 43.9684 61.5755 43.7978Z" fill="#EAAC9D"/>
<path d="M22.0779 67.18C22.5512 66.8813 22.9969 66.5364 23.4085 66.1476C25.0483 64.5989 25.9505 62.5395 25.9493 60.3495C25.9481 58.4229 24.2853 56.8555 22.2424 56.8555H8.249C7.68635 56.8555 7.12931 56.9184 6.58691 57.043C6.76633 58.2127 6.90083 59.3886 6.99041 60.568L7.27845 60.503C7.59261 60.4461 7.91727 60.4163 8.249 60.4163H8.24876H22.1765C22.1599 61.6307 21.6512 62.77 20.7399 63.6306C19.8126 64.5065 18.5796 64.9888 17.2678 64.9888H14.3745C13.3329 64.9888 12.4886 65.7859 12.4886 66.7691C12.4886 67.7524 13.3329 68.5494 14.3745 68.5494H16.588C17.8088 68.6967 18.9138 69.2094 19.7892 70.0357C21.9448 72.0707 21.9448 75.3822 19.7892 77.4172C19.0525 78.1126 19.0525 79.2397 19.7892 79.9353C20.1575 80.2828 20.6401 80.4568 21.1227 80.4568C21.6053 80.4568 22.0881 80.2828 22.4562 79.9353C26.0828 76.5118 26.0828 70.9413 22.4562 67.5178C22.3334 67.4017 22.2072 67.289 22.0779 67.18Z" fill="#904F40"/>
<path d="M29.8455 62.8715H26.899C25.3335 62.8715 24.0645 61.6735 24.0645 60.1957V50.8104C24.0645 49.3379 25.3289 48.1445 26.8885 48.1445H29.856C31.4158 48.1445 32.68 49.3382 32.68 50.8104V60.1957C32.68 61.6735 31.4109 62.8715 29.8455 62.8715Z" fill="#B46E59"/>
<path d="M38.461 62.8779H35.5142C33.9488 62.8779 32.6794 61.6799 32.6794 60.2021V53.2108C32.6794 51.7383 33.9439 50.5449 35.5035 50.5449H38.471C40.0308 50.5449 41.295 51.7386 41.295 53.2108V60.2021C41.2955 61.6799 40.0264 62.8779 38.461 62.8779Z" fill="#A55E4D"/>
<path d="M70.9821 38.7921H67.7087C65.9695 38.7921 64.5598 37.4611 64.5598 35.8195V25.3934C64.5598 23.7578 65.9644 22.4316 67.6973 22.4316H70.9939C72.7265 22.4316 74.1313 23.7575 74.1313 25.3934V35.8195C74.1311 37.4611 72.7214 38.7921 70.9821 38.7921Z" fill="#FFDDCE"/>
<path d="M80.5542 38.8004H77.2808C75.5415 38.8004 74.1318 37.4694 74.1318 35.8278V28.0614C74.1318 26.4257 75.5364 25.0996 77.2693 25.0996H80.5659C82.2985 25.0996 83.7033 26.4255 83.7033 28.0614V35.8281C83.7031 37.4694 82.2931 38.8004 80.5542 38.8004Z" fill="#FFCBBE"/>
<path d="M78.4153 89.452H46.6188C46.3413 89.452 46.1162 89.2395 46.1162 88.9775V80.4061C46.1162 80.1441 46.3413 79.9316 46.6188 79.9316H78.4153C78.6929 79.9316 78.9179 80.1441 78.9179 80.4061V88.9775C78.9179 89.2397 78.6929 89.452 78.4153 89.452Z" fill="#B5D6FF"/>
<path d="M112.45 14.4481L116.106 10.9969C117.066 10.0904 117.066 8.62059 116.106 7.71402C115.146 6.80745 113.589 6.80745 112.628 7.71402L108.972 11.1652C108.012 12.0717 108.012 13.5415 108.972 14.4481C109.933 15.3546 111.49 15.3546 112.45 14.4481Z" fill="#2C77E7"/>
<path d="M118.081 23.1819L122.767 21.1192C123.998 20.5775 124.53 19.1962 123.956 18.0344C123.382 16.8725 121.919 16.3698 120.689 16.9117L116.003 18.9744C114.772 19.5161 114.239 20.8973 114.813 22.0591C115.387 23.2211 116.85 23.7236 118.081 23.1819Z" fill="#2C77E7"/>
<path d="M99.7225 5.85168L101.908 1.4283C102.481 0.26636 103.945 -0.236313 105.175 0.305539C106.406 0.847272 106.939 2.22849 106.365 3.39032L104.18 7.8137C103.606 8.97564 102.143 9.47831 100.912 8.93646C99.6811 8.39484 99.1486 7.01362 99.7225 5.85168Z" fill="#2C77E7"/>
</g>
<defs>
<clipPath id="clip0">
<rect width="125" height="118" fill="white"/>
</clipPath>
</defs>
</svg>
