<svg width="32" height="32" viewBox="0 0 32 32" fill="none" xmlns="http://www.w3.org/2000/svg">
<g clip-path="url(#clip0_8890_142015)">
<path d="M24.7325 4.55663C24.7325 2.04006 22.6925 0 20.1759 0C18.4227 0 16.9008 0.990125 16.1388 2.44175C16.0802 2.5535 15.922 2.5535 15.8633 2.44175C15.1013 0.990125 13.5794 0 11.8262 0C9.30959 0 7.26953 2.04006 7.26953 4.55663C7.26953 9.52781 15.044 14.3736 15.9208 14.9043C15.9702 14.9342 16.0318 14.9342 16.0812 14.9043C16.958 14.3736 24.7325 9.52781 24.7325 4.55663Z" fill="#FF5F2A"/>
<path d="M20.8194 0.0454102C21.6449 0.870098 22.1556 2.00991 22.1556 3.26897C22.1556 7.90654 15.3895 12.435 13.7695 13.4528C14.8283 14.2322 15.6647 14.7503 15.9194 14.9044C15.9688 14.9343 16.0303 14.9343 16.0797 14.9044C16.9565 14.3737 24.731 9.52791 24.731 4.55672C24.731 2.2591 23.0305 0.358723 20.8194 0.0454102Z" fill="#DD636E"/>
<path d="M4.04623 6.97996H2.22936C1.75211 6.97996 1.36523 6.59308 1.36523 6.11583C1.36523 5.63858 1.75211 5.25171 2.22936 5.25171H4.04617C4.52342 5.25171 4.9103 5.63858 4.9103 6.11583C4.9103 6.59308 4.52342 6.97996 4.04623 6.97996Z" fill="white"/>
<path d="M4.94719 10.6768L3.23994 11.2982C2.7915 11.4614 2.29562 11.2302 2.13244 10.7817C1.96919 10.3333 2.20044 9.83741 2.64887 9.67422L4.35612 9.05285C4.80456 8.8896 5.30044 9.12085 5.46362 9.56928C5.62687 10.0177 5.39562 10.5135 4.94719 10.6768Z" fill="white"/>
<path d="M4.94719 1.55459L3.23994 0.933217C2.7915 0.769967 2.29562 1.00122 2.13244 1.44965C1.96919 1.89809 2.20044 2.39397 2.64887 2.55715L4.35612 3.17853C4.80456 3.34178 5.30044 3.11053 5.46362 2.66209C5.62687 2.21372 5.39562 1.71784 4.94719 1.55459Z" fill="white"/>
<path d="M27.9833 7.01316H29.8001C30.2773 7.01316 30.6642 6.62629 30.6642 6.14904C30.6642 5.67179 30.2773 5.28491 29.8001 5.28491H27.9833C27.506 5.28491 27.1191 5.67179 27.1191 6.14904C27.1192 6.62629 27.5061 7.01316 27.9833 7.01316Z" fill="white"/>
<path d="M27.0825 10.7102L28.7897 11.3316C29.2382 11.4949 29.734 11.2636 29.8972 10.8152C30.0605 10.3667 29.8292 9.87086 29.3808 9.70767L27.6735 9.08629C27.2251 8.92304 26.7292 9.15429 26.566 9.60273C26.4028 10.0512 26.634 10.547 27.0825 10.7102Z" fill="white"/>
<path d="M27.0825 1.58804L28.7897 0.966665C29.2382 0.803415 29.734 1.03466 29.8972 1.4831C30.0605 1.93154 29.8292 2.42741 29.3808 2.5906L27.6735 3.21198C27.2251 3.37523 26.7292 3.14398 26.566 2.69554C26.4028 2.24716 26.634 1.75129 27.0825 1.58804Z" fill="white"/>
<path d="M26.1004 20.7168C26.1004 20.7168 26.7355 16.1491 26.7425 16.1268C25.8521 15.9265 24.9547 16.4631 24.7163 17.3527L23.7619 20.9147C23.6609 21.2917 23.4142 21.6131 23.0762 21.8083L26.1004 20.7168Z" fill="#DF9380"/>
<path d="M28.8314 14.9895C27.9145 14.7353 26.968 15.2773 26.7222 16.1945L25.7677 19.7565C25.6667 20.1335 25.42 20.4549 25.082 20.6501L28.1725 19.8534L28.8314 14.9895Z" fill="#EAAC9D"/>
<path d="M31.9806 14.6861C32.0509 14.4236 31.9173 14.1462 31.6653 14.0447C30.3623 13.5202 28.937 14.2601 28.5848 15.5743L27.7746 18.5981C27.6736 18.9751 27.4269 19.2965 27.0889 19.4917L21.5496 22.6898C21.1532 22.9187 20.678 22.554 20.7964 22.1118L21.2153 20.5487C21.5445 19.3202 20.8166 18.0575 19.5893 17.7263C19.2112 17.6242 18.8196 17.8473 18.7183 18.2256L17.3076 23.4902C16.9958 24.6539 16.8379 25.8535 16.8379 27.0582V31.9299C16.8379 31.9686 16.8693 32 16.908 32H22.264C22.3027 32 22.3341 31.9686 22.3341 31.9299V29.9045C22.3341 28.8522 22.7541 27.8435 23.501 27.1023L29.9431 20.7082C30.3213 20.3328 30.5933 19.8638 30.7313 19.349L31.9806 14.6861Z" fill="#FFCBBE"/>
<path d="M5.89792 20.7168C5.89792 20.7168 5.26286 16.1491 5.25586 16.1268C6.14623 15.9265 7.04367 16.4631 7.28205 17.3527L8.23648 20.9147C8.33748 21.2917 8.58417 21.6131 8.92217 21.8083L5.89792 20.7168Z" fill="#DF9380"/>
<path d="M3.16797 14.9895C4.08491 14.7353 5.03141 15.2773 5.27722 16.1945L6.23166 19.7565C6.33266 20.1335 6.57934 20.4549 6.91735 20.6501L3.82684 19.8534L3.16797 14.9895Z" fill="#EAAC9D"/>
<path d="M0.0186504 14.6861C-0.0516621 14.4236 0.0819004 14.1462 0.333963 14.0447C1.6369 13.5202 3.06228 14.2601 3.4144 15.5743L4.22465 18.5981C4.32565 18.9751 4.57234 19.2965 4.91034 19.4917L10.4496 22.6898C10.846 22.9187 11.3213 22.554 11.2028 22.1118L10.784 20.5487C10.4548 19.3202 11.1826 18.0575 12.41 17.7263C12.788 17.6242 13.1796 17.8473 13.281 18.2256L14.6916 23.4902C15.0034 24.6539 15.1613 25.8535 15.1613 27.0582V31.9299C15.1613 31.9686 15.13 32 15.0913 32H9.73527C9.69659 32 9.66521 31.9686 9.66521 31.9299V29.9045C9.66521 28.8522 9.24521 27.8435 8.49834 27.1023L2.05621 20.7083C1.67796 20.3328 1.40596 19.8638 1.26803 19.349L0.0186504 14.6861Z" fill="#FFCBBE"/>
</g>
<defs>
<clipPath id="clip0_8890_142015">
<rect width="32" height="32" fill="white"/>
</clipPath>
</defs>
</svg>
