<svg width="14" height="18" viewBox="0 0 14 18" fill="none" xmlns="http://www.w3.org/2000/svg">
<path d="M6.9987 11.291C7.70703 11.291 8.34939 11.1243 8.92578 10.791C9.50217 10.4577 9.96398 10.0132 10.3112 9.45768C9.83898 9.09657 9.32509 8.82574 8.76953 8.64518C8.21398 8.46463 7.6237 8.37435 6.9987 8.37435C6.3737 8.37435 5.78342 8.46463 5.22786 8.64518C4.67231 8.82574 4.15842 9.09657 3.6862 9.45768C4.03342 10.0132 4.49523 10.4577 5.07161 10.791C5.648 11.1243 6.29036 11.291 6.9987 11.291ZM6.9987 7.12435C7.40148 7.12435 7.74523 6.98199 8.02995 6.69727C8.31467 6.41254 8.45703 6.06879 8.45703 5.66602C8.45703 5.26324 8.31467 4.91949 8.02995 4.63477C7.74523 4.35004 7.40148 4.20768 6.9987 4.20768C6.59592 4.20768 6.25217 4.35004 5.96745 4.63477C5.68273 4.91949 5.54036 5.26324 5.54036 5.66602C5.54036 6.06879 5.68273 6.41254 5.96745 6.69727C6.25217 6.98199 6.59592 7.12435 6.9987 7.12435ZM6.9987 15.6868C8.84592 14.0063 10.2105 12.482 11.0924 11.1139C11.9744 9.74588 12.4154 8.54102 12.4154 7.49935C12.4154 5.86046 11.8911 4.52018 10.8424 3.47852C9.79384 2.43685 8.51259 1.91602 6.9987 1.91602C5.48481 1.91602 4.20356 2.43685 3.15495 3.47852C2.10634 4.52018 1.58203 5.86046 1.58203 7.49935C1.58203 8.54102 2.03342 9.74588 2.9362 11.1139C3.83898 12.482 5.19314 14.0063 6.9987 15.6868ZM6.9987 17.3327C4.76259 15.4299 3.09245 13.6625 1.98828 12.0306C0.884115 10.3987 0.332031 8.88824 0.332031 7.49935C0.332031 5.41602 1.00217 3.75629 2.34245 2.52018C3.68273 1.28407 5.23481 0.666016 6.9987 0.666016C8.76259 0.666016 10.3147 1.28407 11.6549 2.52018C12.9952 3.75629 13.6654 5.41602 13.6654 7.49935C13.6654 8.88824 13.1133 10.3987 12.0091 12.0306C10.9049 13.6625 9.23481 15.4299 6.9987 17.3327Z" fill="#263238"/>
</svg>
