<svg width="148" height="186" viewBox="0 0 148 186" fill="none" xmlns="http://www.w3.org/2000/svg">
<path d="M23.7793 156H20.918L13.8965 144.623H13.8184L13.8672 145.258C13.9583 146.469 14.0039 147.576 14.0039 148.578V156H11.8848V141.723H14.7168L21.7188 153.041H21.7773C21.7643 152.891 21.7383 152.348 21.6992 151.41C21.6602 150.466 21.6406 149.73 21.6406 149.203V141.723H23.7793V156ZM36.8848 150.58C36.8848 152.344 36.4323 153.721 35.5273 154.711C34.6224 155.701 33.3626 156.195 31.748 156.195C30.7389 156.195 29.847 155.967 29.0723 155.512C28.2975 155.056 27.7018 154.402 27.2852 153.549C26.8685 152.696 26.6602 151.706 26.6602 150.58C26.6602 148.829 27.1094 147.462 28.0078 146.479C28.9062 145.495 30.1725 145.004 31.8066 145.004C33.3691 145.004 34.6061 145.508 35.5176 146.518C36.429 147.52 36.8848 148.874 36.8848 150.58ZM29.0234 150.58C29.0234 153.074 29.9447 154.32 31.7871 154.32C33.61 154.32 34.5215 153.074 34.5215 150.58C34.5215 148.113 33.6035 146.879 31.7676 146.879C30.804 146.879 30.1042 147.198 29.668 147.836C29.2383 148.474 29.0234 149.389 29.0234 150.58ZM49.0332 156H46.7285V149.359C46.7285 148.526 46.5592 147.904 46.2207 147.494C45.8887 147.084 45.3581 146.879 44.6289 146.879C43.6589 146.879 42.9492 147.165 42.5 147.738C42.0508 148.311 41.8262 149.271 41.8262 150.619V156H39.5312V145.199H41.3281L41.6504 146.615H41.7676C42.0931 146.101 42.5553 145.704 43.1543 145.424C43.7533 145.144 44.4173 145.004 45.1465 145.004C47.7376 145.004 49.0332 146.322 49.0332 148.959V156ZM57.7051 156.195C56.3379 156.195 55.2767 155.704 54.5215 154.721H54.3848C54.4759 155.632 54.5215 156.186 54.5215 156.381V160.805H52.2266V145.199H54.082C54.1341 145.401 54.2415 145.883 54.4043 146.645H54.5215C55.2376 145.551 56.3118 145.004 57.7441 145.004C59.0918 145.004 60.14 145.492 60.8887 146.469C61.6439 147.445 62.0215 148.816 62.0215 150.58C62.0215 152.344 61.6374 153.721 60.8691 154.711C60.1074 155.701 59.0527 156.195 57.7051 156.195ZM57.1484 146.879C56.237 146.879 55.5697 147.146 55.1465 147.68C54.7298 148.214 54.5215 149.066 54.5215 150.238V150.58C54.5215 151.895 54.7298 152.849 55.1465 153.441C55.5632 154.027 56.2435 154.32 57.1875 154.32C57.9818 154.32 58.5938 153.995 59.0234 153.344C59.4531 152.693 59.668 151.765 59.668 150.561C59.668 149.35 59.4531 148.435 59.0234 147.816C58.6003 147.191 57.9753 146.879 57.1484 146.879ZM70.166 145.004C70.6283 145.004 71.0091 145.036 71.3086 145.102L71.084 147.24C70.7585 147.162 70.4199 147.123 70.0684 147.123C69.1504 147.123 68.4049 147.423 67.832 148.021C67.2656 148.62 66.9824 149.398 66.9824 150.355V156H64.6875V145.199H66.4844L66.7871 147.104H66.9043C67.2624 146.459 67.7279 145.948 68.3008 145.57C68.8802 145.193 69.502 145.004 70.166 145.004ZM82.9004 150.58C82.9004 152.344 82.4479 153.721 81.543 154.711C80.638 155.701 79.3783 156.195 77.7637 156.195C76.7546 156.195 75.8626 155.967 75.0879 155.512C74.3132 155.056 73.7174 154.402 73.3008 153.549C72.8841 152.696 72.6758 151.706 72.6758 150.58C72.6758 148.829 73.125 147.462 74.0234 146.479C74.9219 145.495 76.1882 145.004 77.8223 145.004C79.3848 145.004 80.6217 145.508 81.5332 146.518C82.4447 147.52 82.9004 148.874 82.9004 150.58ZM75.0391 150.58C75.0391 153.074 75.9603 154.32 77.8027 154.32C79.6257 154.32 80.5371 153.074 80.5371 150.58C80.5371 148.113 79.6191 146.879 77.7832 146.879C76.8197 146.879 76.1198 147.198 75.6836 147.836C75.2539 148.474 75.0391 149.389 75.0391 150.58ZM90.9668 146.938H88.3301V156H86.0254V146.938H84.248V145.863L86.0254 145.16V144.457C86.0254 143.181 86.3249 142.237 86.9238 141.625C87.5228 141.007 88.4375 140.697 89.668 140.697C90.4753 140.697 91.2695 140.831 92.0508 141.098L91.4453 142.836C90.8789 142.654 90.3385 142.562 89.8242 142.562C89.3034 142.562 88.9225 142.725 88.6816 143.051C88.4473 143.37 88.3301 143.852 88.3301 144.496V145.199H90.9668V146.938ZM95.0977 156H92.8027V145.199H95.0977V156ZM92.666 142.338C92.666 141.928 92.7767 141.612 92.998 141.391C93.2259 141.169 93.5482 141.059 93.9648 141.059C94.3685 141.059 94.681 141.169 94.9023 141.391C95.1302 141.612 95.2441 141.928 95.2441 142.338C95.2441 142.729 95.1302 143.038 94.9023 143.266C94.681 143.487 94.3685 143.598 93.9648 143.598C93.5482 143.598 93.2259 143.487 92.998 143.266C92.7767 143.038 92.666 142.729 92.666 142.338ZM102.422 154.34C102.982 154.34 103.542 154.252 104.102 154.076V155.805C103.848 155.915 103.519 156.007 103.115 156.078C102.718 156.156 102.305 156.195 101.875 156.195C99.7005 156.195 98.6133 155.049 98.6133 152.758V146.938H97.1387V145.922L98.7207 145.082L99.502 142.797H100.918V145.199H103.994V146.938H100.918V152.719C100.918 153.272 101.055 153.682 101.328 153.949C101.608 154.21 101.973 154.34 102.422 154.34ZM113.525 152.924C113.525 153.979 113.141 154.789 112.373 155.355C111.605 155.915 110.505 156.195 109.072 156.195C107.633 156.195 106.478 155.977 105.605 155.541V153.559C106.875 154.145 108.057 154.438 109.15 154.438C110.563 154.438 111.27 154.011 111.27 153.158C111.27 152.885 111.191 152.657 111.035 152.475C110.879 152.292 110.622 152.104 110.264 151.908C109.906 151.713 109.408 151.492 108.77 151.244C107.526 150.762 106.683 150.281 106.24 149.799C105.804 149.317 105.586 148.692 105.586 147.924C105.586 146.999 105.957 146.283 106.699 145.775C107.448 145.261 108.464 145.004 109.746 145.004C111.016 145.004 112.217 145.261 113.35 145.775L112.607 147.504C111.442 147.022 110.462 146.781 109.668 146.781C108.457 146.781 107.852 147.126 107.852 147.816C107.852 148.155 108.008 148.441 108.32 148.676C108.639 148.91 109.329 149.232 110.391 149.643C111.283 149.988 111.93 150.303 112.334 150.59C112.738 150.876 113.037 151.208 113.232 151.586C113.428 151.957 113.525 152.403 113.525 152.924Z" fill="#263238"/>
<line x1="27" y1="184.5" x2="97" y2="184.5" stroke="#E6E6E6" stroke-width="3"/>
<g clip-path="url(#clip0)" filter="url(#filter0_d)">
<path d="M12.8447 31.7997V94.4996C12.8447 96.3222 14.3222 97.7996 16.1448 97.7996H108.544C110.367 97.7996 111.844 96.3222 111.844 94.4996V31.7997L62.3443 19.1816L12.8447 31.7997Z" fill="#ECF3FD"/>
<path d="M107.263 94.5006C107.263 96.3232 105.785 97.8006 103.963 97.8006H108.544C110.367 97.8006 111.844 96.3232 111.844 94.5006V31.8007L107.263 30.6328V94.5006H107.263Z" fill="#D6E3FA"/>
<path d="M70.5923 91.1999C69.681 91.1999 68.9424 90.4612 68.9424 89.5499V79.6499C68.9424 78.7386 69.6812 78 70.5923 78H95.3423C96.2536 78 96.9922 78.7386 96.9922 79.6499V89.5499C96.9922 90.4612 96.2536 91.1999 95.3423 91.1999H70.5923Z" fill="#FF5F2A"/>
<path d="M95.3451 78H90.7637C91.675 78 92.4136 78.7386 92.4136 79.6499V89.5499C92.4136 90.4612 91.675 91.1999 90.7637 91.1999H95.3451C96.2564 91.1999 96.9951 90.4612 96.9951 89.5499V79.6499C96.9951 78.7386 96.2564 78 95.3451 78Z" fill="#FF5F2A"/>
<path d="M90.4963 45.0003H73.79C72.9358 45.0003 72.2432 44.3077 72.2432 43.4534V39.9473C72.2432 39.093 72.9358 38.4004 73.79 38.4004H90.4963C91.3505 38.4004 92.0432 39.093 92.0432 39.9473V43.4534C92.0432 44.3077 91.3507 45.0003 90.4963 45.0003Z" fill="#82B7F9"/>
<path d="M100.295 53.0952H63.9949C63.1698 53.0952 62.501 52.4264 62.501 51.6013C62.501 50.7763 63.1698 50.1074 63.9949 50.1074H100.295C101.12 50.1074 101.789 50.7763 101.789 51.6013C101.789 52.4264 101.12 53.0952 100.295 53.0952Z" fill="#617881"/>
<path d="M100.295 59.6948H63.9949C63.1698 59.6948 62.501 59.026 62.501 58.2009C62.501 57.3759 63.1698 56.707 63.9949 56.707H100.295C101.12 56.707 101.789 57.3759 101.789 58.2009C101.789 59.026 101.12 59.6948 100.295 59.6948Z" fill="#617881"/>
<path d="M90.3972 66.2944H73.8972C73.0722 66.2944 72.4033 65.6256 72.4033 64.8005C72.4033 63.9755 73.0722 63.3066 73.8972 63.3066H90.3972C91.2222 63.3066 91.8911 63.9755 91.8911 64.8005C91.8911 65.6256 91.2222 66.2944 90.3972 66.2944Z" fill="#617881"/>
<path d="M90.4496 38.4004H85.8682C86.7483 38.4004 87.4616 39.1139 87.4616 39.9941V43.4068C87.4616 44.287 86.7481 45.0003 85.8682 45.0003H90.4496C91.3296 45.0003 92.0431 44.2868 92.0431 43.4068V39.9941C92.0431 39.1139 91.3296 38.4004 90.4496 38.4004Z" fill="#66A4F7"/>
<path d="M54.3007 77.9145H27.4883C25.7796 77.9145 24.3945 76.5292 24.3945 74.8207V41.4082C24.3945 39.6995 25.7796 38.3145 27.4883 38.3145H54.3007C56.0094 38.3145 57.3944 39.6995 57.3944 41.4082V74.8207C57.3944 76.5292 56.0094 77.9145 54.3007 77.9145Z" fill="#F0DC34"/>
<path d="M54.2065 38.3145H49.625C51.3852 38.3145 52.8121 39.7414 52.8121 41.5016V74.7273C52.8121 76.4875 51.3852 77.9145 49.625 77.9145H54.2065C55.9666 77.9145 57.3936 76.4875 57.3936 74.7273V41.5016C57.3934 39.7414 55.9666 38.3145 54.2065 38.3145Z" fill="#ECC130"/>
<path d="M108.544 12H16.1446C14.3222 12 12.8447 13.4775 12.8447 15.3001V31.8H111.844V15.3001C111.844 13.4775 110.367 12 108.544 12V12Z" fill="#82B7F9"/>
<path d="M107.263 15.3001V31.8H111.844V15.3001C111.844 13.4775 110.367 12 108.544 12H103.963C105.785 12 107.263 13.4775 107.263 15.3001Z" fill="#66A4F7"/>
<path d="M25.0746 24.2335C26.3632 22.945 26.3632 20.8558 25.0746 19.5672C23.7861 18.2787 21.6969 18.2787 20.4083 19.5672C19.1198 20.8558 19.1198 22.945 20.4083 24.2335C21.6969 25.5221 23.7861 25.5221 25.0746 24.2335Z" fill="#DC6671"/>
<path d="M38.2738 24.2355C39.5624 22.9469 39.5624 20.8578 38.2738 19.5692C36.9853 18.2806 34.8961 18.2806 33.6076 19.5692C32.319 20.8578 32.319 22.9469 33.6076 24.2355C34.8961 25.5241 36.9853 25.524 38.2738 24.2355Z" fill="#A3F3C3"/>
<path d="M52.3616 22.6704C52.7808 20.897 51.683 19.1196 49.9097 18.7004C48.1363 18.2812 46.3589 19.379 45.9397 21.1523C45.5205 22.9257 46.6183 24.7031 48.3916 25.1223C50.165 25.5415 51.9424 24.4437 52.3616 22.6704Z" fill="#F0DC34"/>
<path d="M100.251 96.0713L82.6478 89.5858C81.327 89.0991 80.0425 90.3836 80.5292 91.7044L87.0146 109.308C87.2227 109.873 87.9464 110.032 88.3722 109.606L91.5441 106.434C91.8662 106.112 92.3887 106.112 92.7108 106.434L96.7944 110.518C97.4386 111.162 98.4833 111.162 99.1278 110.518L101.461 108.184C102.106 107.54 102.106 106.495 101.461 105.851L97.3777 101.767C97.0556 101.445 97.0556 100.922 97.3777 100.6L100.55 97.4285C100.975 97.0031 100.816 96.2793 100.251 96.0713Z" fill="#D6E3FA"/>
<path d="M101.46 105.851L97.3767 101.767C97.0546 101.445 97.0546 100.923 97.3767 100.601L100.549 97.4287C100.974 97.003 100.815 96.2794 100.25 96.0712L82.6472 89.5857C81.7504 89.2552 80.8722 89.7421 80.5518 90.5016L95.669 96.0712C96.234 96.2794 96.3929 97.003 95.9671 97.4287L92.7953 100.601C92.4731 100.923 92.4731 101.445 92.7953 101.767L96.8788 105.851C97.5231 106.495 97.5231 107.54 96.8788 108.184L95.6694 109.394L96.7934 110.518C97.4376 111.162 98.4824 111.162 99.1268 110.518L101.46 108.184C102.105 107.54 102.105 106.495 101.46 105.851Z" fill="#BDD5F8"/>
<path d="M46.1757 72.2089C44.9117 71.5286 43.0077 70.4031 40.8931 68.8061C38.7793 70.4025 36.8763 71.5277 35.6121 72.2081C34.7735 72.6594 33.7295 72.3009 33.3447 71.4298L32.0197 68.4295C31.6788 67.6574 31.9808 66.7501 32.72 66.3427C33.5267 65.8984 34.6445 65.235 35.9083 64.3502C34.8062 63.1776 33.7332 61.8802 32.7444 60.4546C30.0288 56.5394 30.5149 51.2408 33.9005 47.8556C35.946 45.8099 38.7304 44.7706 41.652 44.9872C43.6032 45.1318 45.4815 45.8613 47.0137 47.0781C51.1723 50.3803 51.9759 56.225 49.0419 60.4547C48.0532 61.8804 46.9801 63.1776 45.8779 64.3502C47.1436 65.2361 48.2632 65.9003 49.0712 66.3452C49.8112 66.7526 50.1131 67.6614 49.7708 68.4337L48.4422 71.4323C48.0569 72.3025 47.0137 72.6598 46.1757 72.2089ZM40.8931 51.4898C39.9961 51.4898 39.1527 51.8392 38.5183 52.4736C37.368 53.6237 37.1965 55.415 38.1105 56.7326C38.9707 57.9726 39.918 59.0993 40.8931 60.1131C41.868 59.0993 42.8153 57.9726 43.6757 56.7326C44.5896 55.415 44.418 53.6239 43.2679 52.4736C42.6337 51.8392 41.7903 51.4898 40.8931 51.4898Z" fill="#FF5F2A" fill-opacity="0.65"/>
<path d="M38.1122 56.7327C38.061 56.6586 38.0142 56.5826 37.9695 56.5059C36.2917 58.2335 34.547 59.6565 32.9775 60.7816C33.9016 62.0789 34.893 63.2684 35.91 64.3504C37.454 63.2698 39.2157 61.8586 40.8948 60.1132C39.9195 59.0994 38.9723 57.9727 38.1122 56.7327Z" fill="#FF5F2A"/>
<path d="M49.0708 66.3448C48.2627 65.8999 47.1432 65.2355 45.8775 64.3497C46.9796 63.1772 48.0527 61.8799 49.0414 60.4543C51.9754 56.2248 51.1718 50.3799 47.0132 47.0777C45.4811 45.8611 43.6028 45.1315 41.6516 44.9867C40.6096 44.9095 39.5859 44.9948 38.6062 45.2257C39.9957 45.5552 41.307 46.1846 42.4318 47.0775C46.5904 50.3797 47.394 56.2244 44.4599 60.4541C43.4711 61.8797 42.3981 63.177 41.296 64.3495C39.7917 66.0704 37.4613 67.9008 36.3112 68.8055C35.1721 69.6657 34.0953 70.3879 33.1455 70.9788L33.3445 71.4292C33.7293 72.3003 34.7732 72.6588 35.6118 72.2075C36.8758 71.527 38.779 70.4019 40.8928 68.8055C43.0074 70.4026 44.9114 71.528 46.1754 72.2082C47.0134 72.6591 48.0564 72.3016 48.442 71.4317L49.7706 68.4331C50.1126 67.661 49.8106 66.7522 49.0708 66.3448Z" fill="#FF5F2A"/>
<path d="M26.4119 92.4799L23.7712 97.0536C23.0776 98.255 23.4892 99.7912 24.6906 100.485C25.8921 101.179 27.4283 100.767 28.122 99.5655L30.7626 94.9918C31.4563 93.7903 31.0446 92.2541 29.8432 91.5605C28.6416 90.867 27.1054 91.2786 26.4119 92.4799Z" fill="#2C77E7"/>
<path d="M18.4133 84.8412L14.3676 88.236C13.3049 89.1276 13.1663 90.712 14.0581 91.7746C14.9497 92.8374 16.5341 92.976 17.5967 92.0842L21.6424 88.6895C22.7051 87.7978 22.8437 86.2134 21.952 85.1508C21.0603 84.0881 19.476 83.9496 18.4133 84.8412Z" fill="#2C77E7"/>
<path d="M41.3786 98.0992L40.4615 103.3C40.2207 104.666 38.9178 105.579 37.5517 105.338C36.1855 105.097 35.2733 103.794 35.5142 102.428L36.4314 97.2268C36.6722 95.8606 37.975 94.9484 39.3411 95.1894C40.7072 95.4301 41.6194 96.733 41.3786 98.0992Z" fill="#2C77E7"/>
</g>
<defs>
<filter id="filter0_d" x="0.84375" y="0" width="147" height="147" filterUnits="userSpaceOnUse" color-interpolation-filters="sRGB">
<feFlood flood-opacity="0" result="BackgroundImageFix"/>
<feColorMatrix in="SourceAlpha" type="matrix" values="0 0 0 0 0 0 0 0 0 0 0 0 0 0 0 0 0 0 127 0" result="hardAlpha"/>
<feOffset dx="12" dy="12"/>
<feGaussianBlur stdDeviation="12"/>
<feColorMatrix type="matrix" values="0 0 0 0 0.94 0 0 0 0 0.94 0 0 0 0 0.94 0 0 0 0.25 0"/>
<feBlend mode="normal" in2="BackgroundImageFix" result="effect1_dropShadow"/>
<feBlend mode="normal" in="SourceGraphic" in2="effect1_dropShadow" result="shape"/>
</filter>
<clipPath id="clip0">
<rect width="99" height="99" fill="white" transform="translate(12.8438 12)"/>
</clipPath>
</defs>
</svg>
