<svg width="80" height="80" viewBox="0 0 80 80" fill="none" xmlns="http://www.w3.org/2000/svg">
<g filter="url(#filter0_d_14008_19953)">
<path d="M31.302 34.2249L28.4754 32.4289V29.2944C28.4754 29.0356 28.2635 28.8257 28.0021 28.8257C27.7406 28.8257 27.5288 29.0356 27.5288 29.2944V32.4289L24.7021 34.2249C24.4822 34.3647 24.4182 34.6547 24.5593 34.8726C24.6498 35.0121 24.8024 35.0882 24.9581 35.0882C25.0456 35.0882 25.1341 35.0642 25.2132 35.014L28.0021 33.242L30.7909 35.014C30.87 35.0643 30.9585 35.0882 31.046 35.0882C31.2018 35.0882 31.3544 35.0121 31.4448 34.8726C31.5859 34.6547 31.522 34.3647 31.302 34.2249Z" fill="#FF5F2A"/>
<path d="M32.2148 22.6713H32.858C33.559 22.6713 34.1273 22.1084 34.1273 21.4141C34.1273 20.7198 33.559 20.157 32.858 20.157H32.2148V22.6713Z" fill="#FFCEBF"/>
<path d="M34.127 21.414C34.127 22.1081 33.5587 22.6709 32.8579 22.6709H32.2148V22.2072C32.7641 22.0697 33.171 21.5767 33.171 20.9894C33.171 20.6702 33.0504 20.379 32.8523 20.157H32.8579C33.2083 20.157 33.5256 20.298 33.7554 20.525C33.9846 20.7527 34.127 21.0669 34.127 21.414Z" fill="#FFB09E"/>
<path d="M23.9164 22.6713H23.2732C22.5722 22.6713 22.0039 22.1084 22.0039 21.4141C22.0039 20.7198 22.5722 20.157 23.2732 20.157H23.9164V22.6713Z" fill="#FFCEBF"/>
<path d="M28.0644 26.9267C25.7032 26.9267 23.7891 25.0309 23.7891 22.6923V19.2577L27.8754 16.9304L32.3397 19.2577V22.6923C32.3397 25.0309 30.4256 26.9267 28.0644 26.9267Z" fill="#FFCEBF"/>
<path d="M32.3419 19.2578V22.6928C32.3419 25.0307 30.4276 26.9266 28.0664 26.9266C27.826 26.9266 27.5905 26.9071 27.3613 26.8687C29.387 26.5363 30.9318 24.7926 30.9318 22.6928V18.5225L32.3419 19.2578Z" fill="#FFB09E"/>
<path d="M26.3717 23.0482C26.1103 23.0482 25.8984 22.8383 25.8984 22.5794V21.9141C25.8984 21.6552 26.1103 21.4453 26.3717 21.4453C26.6332 21.4453 26.845 21.6552 26.845 21.9141V22.5794C26.845 22.8383 26.6331 23.0482 26.3717 23.0482Z" fill="#685E68"/>
<path d="M29.7702 23.0482C29.5087 23.0482 29.2969 22.8384 29.2969 22.5795V21.9141C29.2969 21.6552 29.5087 21.4453 29.7702 21.4453C30.0316 21.4453 30.2434 21.6552 30.2434 21.9141V22.5795C30.2434 22.8384 30.0315 23.0482 29.7702 23.0482Z" fill="#685E68"/>
<path d="M28.0674 16.25C29.2524 16.25 30.213 15.2986 30.213 14.125C30.213 12.9514 29.2524 12 28.0674 12C26.8825 12 25.9219 12.9514 25.9219 14.125C25.9219 15.2986 26.8825 16.25 28.0674 16.25Z" fill="#685E68"/>
<path d="M30.2119 14.1254C30.2119 15.2986 29.2516 16.2503 28.0664 16.2503C27.8196 16.2503 27.582 16.2091 27.3613 16.1323C28.2004 15.8439 28.8018 15.0542 28.8018 14.1254C28.8018 13.1967 28.2004 12.4069 27.3613 12.1185C27.582 12.0417 27.8196 12.0005 28.0664 12.0005C29.2516 12.0005 30.2119 12.9515 30.2119 14.1254Z" fill="#554E56"/>
<path d="M28.0644 14.7744C25.7032 14.7744 23.7891 16.6702 23.7891 19.0088V20.82C23.7891 20.82 27.403 20.676 28.0644 18.0131C28.7258 20.676 32.3398 20.82 32.3398 20.82V19.0088C32.3398 16.6702 30.4257 14.7744 28.0644 14.7744Z" fill="#685E68"/>
<path d="M32.3419 19.0085V20.8199C32.3419 20.8199 31.713 20.7948 30.9318 20.5727V19.0085C30.9318 16.908 29.387 15.165 27.3613 14.8326C27.5905 14.7942 27.826 14.7747 28.0664 14.7747C30.4276 14.7746 32.3419 16.6698 32.3419 19.0085Z" fill="#554E56"/>
<path d="M42.0234 39.6003H42.6883C43.413 39.6003 44.0004 39.0185 44.0004 38.3008C44.0004 37.583 43.4129 37.0012 42.6883 37.0012H42.0234V39.6003Z" fill="#FFCEBF"/>
<path d="M44.0002 38.3009C44.0002 39.0184 43.4127 39.6003 42.6882 39.6003H42.0234V39.121C42.5913 38.9787 43.0118 38.4691 43.0118 37.862C43.0118 37.532 42.8871 37.231 42.6823 37.0015H42.6881C43.0503 37.0015 43.3784 37.1473 43.6159 37.3819C43.853 37.6172 44.0002 37.942 44.0002 38.3009Z" fill="#FFB09E"/>
<path d="M33.436 39.6003H32.7711C32.0464 39.6003 31.459 39.0185 31.459 38.3008C31.459 37.583 32.0465 37.0012 32.7711 37.0012H33.436V39.6003Z" fill="#FFCEBF"/>
<path d="M37.7283 43.9998C35.2873 43.9998 33.3086 42.04 33.3086 39.6225V36.0719L37.5329 33.666L42.1479 36.0719V39.6225C42.1479 42.04 40.1692 43.9998 37.7283 43.9998Z" fill="#FFCEBF"/>
<path d="M42.1487 36.0717V39.6227C42.1487 42.0395 40.1699 43.9995 37.7289 43.9995C37.4803 43.9995 37.2369 43.9793 37 43.9396C39.0941 43.596 40.691 41.7934 40.691 39.6227V35.3115L42.1487 36.0717Z" fill="#FFB09E"/>
<path d="M35.9733 39.9743C35.7118 39.9743 35.5 39.7644 35.5 39.5055V38.8176C35.5 38.5588 35.7118 38.3489 35.9733 38.3489C36.2347 38.3489 36.4466 38.5588 36.4466 38.8176V39.5055C36.4466 39.7644 36.2347 39.9743 35.9733 39.9743Z" fill="#685E68"/>
<path d="M39.4889 39.9745C39.2275 39.9745 39.0156 39.7646 39.0156 39.5058V38.8179C39.0156 38.559 39.2275 38.3491 39.4889 38.3491C39.7504 38.3491 39.9622 38.559 39.9622 38.8179V39.5058C39.9622 39.7646 39.7503 39.9745 39.4889 39.9745Z" fill="#685E68"/>
<path d="M43.3992 32.6296C43.5413 31.8854 42.9401 31.2102 42.1758 31.2358C42.1712 31.2359 42.1667 31.2361 42.1621 31.2362C40.5277 31.2876 38.6886 31.1265 37.0717 31.3907C37.0592 31.3925 37.0468 31.3944 37.0344 31.3964C37.0272 31.3976 37.0199 31.3984 37.0127 31.3997L37.0132 31.4001C34.9125 31.7381 33.3086 33.5423 33.3086 35.7183V37.1361C33.3086 37.1361 35.1585 36.845 36.2863 35.1509C36.2863 35.1509 37.1901 36.939 42.1449 37.1361V35.7183V35.7005C42.1442 35.1067 42.36 34.537 42.7345 34.0733C43.1019 33.6184 43.3016 33.1409 43.3992 32.6296Z" fill="#FDB441"/>
<path d="M43.4023 32.6293C43.3048 33.1408 43.1054 33.6182 42.7377 34.0731C42.3636 34.537 42.1479 35.1063 42.1485 35.7002V37.1363C41.6184 37.115 41.1345 37.0758 40.6934 37.0218V35.7003C40.6927 35.1065 40.9084 34.537 41.2832 34.0731C41.6502 33.6183 41.8503 33.1409 41.9478 32.6294C42.0777 31.9513 41.5892 31.3298 40.9227 31.2455C41.3449 31.2486 41.7614 31.2493 42.1654 31.2364C42.17 31.2364 42.1745 31.2358 42.179 31.2358C42.9437 31.21 43.5446 31.8856 43.4023 32.6293Z" fill="#FEA613"/>
<path d="M22.5664 39.6006H23.2313C23.956 39.6006 24.5434 39.0187 24.5434 38.301C24.5434 37.5833 23.9559 37.0015 23.2313 37.0015H22.5664V39.6006Z" fill="#F6A96C"/>
<path d="M24.5432 38.3011C24.5432 39.0187 23.9557 39.6006 23.2311 39.6006H22.5664V39.1212C23.1342 38.979 23.5547 38.4694 23.5547 37.8622C23.5547 37.5323 23.4301 37.2313 23.2253 37.0017H23.2311C23.5933 37.0017 23.9213 37.1475 24.1589 37.3822C24.3959 37.6175 24.5432 37.9423 24.5432 38.3011Z" fill="#EA9B58"/>
<path d="M13.977 39.6006H13.3121C12.5874 39.6006 12 39.0187 12 38.301C12 37.5833 12.5875 37.0015 13.3121 37.0015H13.977V39.6006Z" fill="#F6A96C"/>
<path d="M18.2712 44C15.8303 44 13.8516 42.0402 13.8516 39.6227V36.0721L18.0759 33.6663L22.691 36.0721V39.6227C22.691 42.0402 20.7122 44 18.2712 44Z" fill="#F6A96C"/>
<path d="M22.6898 36.0719V39.6229C22.6898 42.0398 20.7109 43.9997 18.2699 43.9997C18.0213 43.9997 17.7779 43.9795 17.541 43.9398C19.6351 43.5962 21.2321 41.7937 21.2321 39.6229V35.3118L22.6898 36.0719Z" fill="#EA9B58"/>
<path d="M16.5163 39.9745C16.2548 39.9745 16.043 39.7646 16.043 39.5058V38.8179C16.043 38.559 16.2548 38.3491 16.5163 38.3491C16.7777 38.3491 16.9895 38.559 16.9895 38.8179V39.5058C16.9895 39.7646 16.7776 39.9745 16.5163 39.9745Z" fill="#685E68"/>
<path d="M20.0299 39.9745C19.7685 39.9745 19.5566 39.7646 19.5566 39.5058V38.8179C19.5566 38.559 19.7685 38.3491 20.0299 38.3491C20.2914 38.3491 20.5032 38.559 20.5032 38.8179V39.5058C20.5032 39.7646 20.2914 39.9745 20.0299 39.9745Z" fill="#685E68"/>
<path d="M13.8496 35.6771V38.9192C13.8496 38.9192 15.0392 38.1447 15.5716 36.2175H20.967C21.4994 38.1447 22.689 38.9192 22.689 38.9192V35.6771C22.689 33.2595 20.7102 31.2998 18.2693 31.2998C15.8284 31.2998 13.8496 33.2596 13.8496 35.6771Z" fill="#685E68"/>
<path d="M22.6886 35.6765V38.9187C22.6886 38.9187 21.5168 38.1552 20.9792 36.2572V35.6765C20.9792 33.5483 19.4466 31.7756 17.4141 31.3812C17.6901 31.327 17.9765 31.2991 18.2688 31.2991C20.71 31.2991 22.6886 33.2588 22.6886 35.6765Z" fill="#554E56"/>
</g>
<defs>
<filter id="filter0_d_14008_19953" x="0" y="0" width="80" height="80" filterUnits="userSpaceOnUse" color-interpolation-filters="sRGB">
<feFlood flood-opacity="0" result="BackgroundImageFix"/>
<feColorMatrix in="SourceAlpha" type="matrix" values="0 0 0 0 0 0 0 0 0 0 0 0 0 0 0 0 0 0 127 0" result="hardAlpha"/>
<feOffset dx="12" dy="12"/>
<feGaussianBlur stdDeviation="12"/>
<feColorMatrix type="matrix" values="0 0 0 0 0.94 0 0 0 0 0.94 0 0 0 0 0.94 0 0 0 1 0"/>
<feBlend mode="normal" in2="BackgroundImageFix" result="effect1_dropShadow_14008_19953"/>
<feBlend mode="normal" in="SourceGraphic" in2="effect1_dropShadow_14008_19953" result="shape"/>
</filter>
</defs>
</svg>
