<svg width="150" height="186" viewBox="0 0 150 186" fill="none" xmlns="http://www.w3.org/2000/svg">
<line x1="37" y1="183.734" x2="107" y2="183.734" stroke="#E6E6E6" stroke-width="3"/>
<path d="M14.5605 149.076C14.5605 151.4 13.9779 153.207 12.8125 154.496C11.6536 155.785 10.0098 156.43 7.88086 156.43C5.72591 156.43 4.06901 155.792 2.91016 154.516C1.75781 153.233 1.18164 151.413 1.18164 149.057C1.18164 146.7 1.76107 144.89 2.91992 143.627C4.08529 142.364 5.74544 141.732 7.90039 141.732C10.0228 141.732 11.6634 142.374 12.8223 143.656C13.9811 144.939 14.5605 146.745 14.5605 149.076ZM3.66211 149.076C3.66211 150.834 4.01693 152.169 4.72656 153.08C5.4362 153.985 6.48763 154.438 7.88086 154.438C9.26758 154.438 10.3125 153.988 11.0156 153.09C11.7253 152.191 12.0801 150.854 12.0801 149.076C12.0801 147.325 11.7285 145.997 11.0254 145.092C10.3288 144.187 9.28711 143.734 7.90039 143.734C6.50065 143.734 5.44271 144.187 4.72656 145.092C4.01693 145.997 3.66211 147.325 3.66211 149.076ZM22.8613 145.238C23.3236 145.238 23.7044 145.271 24.0039 145.336L23.7793 147.475C23.4538 147.396 23.1152 147.357 22.7637 147.357C21.8457 147.357 21.1003 147.657 20.5273 148.256C19.9609 148.855 19.6777 149.633 19.6777 150.59V156.234H17.3828V145.434H19.1797L19.4824 147.338H19.5996C19.9577 146.693 20.4232 146.182 20.9961 145.805C21.5755 145.427 22.1973 145.238 22.8613 145.238ZM35.1367 145.434V146.693L33.291 147.035C33.4603 147.263 33.6003 147.543 33.7109 147.875C33.8216 148.207 33.877 148.559 33.877 148.93C33.877 150.043 33.4928 150.919 32.7246 151.557C31.9564 152.195 30.8984 152.514 29.5508 152.514C29.2057 152.514 28.8932 152.488 28.6133 152.436C28.1185 152.742 27.8711 153.1 27.8711 153.51C27.8711 153.757 27.985 153.943 28.2129 154.066C28.4473 154.19 28.8737 154.252 29.4922 154.252H31.377C32.5684 154.252 33.4733 154.506 34.0918 155.014C34.7103 155.521 35.0195 156.254 35.0195 157.211C35.0195 158.435 34.515 159.379 33.5059 160.043C32.4967 160.707 31.0384 161.039 29.1309 161.039C27.6595 161.039 26.5365 160.779 25.7617 160.258C24.987 159.737 24.5996 158.995 24.5996 158.031C24.5996 157.367 24.8079 156.807 25.2246 156.352C25.6478 155.902 26.237 155.59 26.9922 155.414C26.6862 155.284 26.4323 155.076 26.2305 154.789C26.0352 154.496 25.9375 154.19 25.9375 153.871C25.9375 153.467 26.0514 153.126 26.2793 152.846C26.5072 152.566 26.8457 152.289 27.2949 152.016C26.735 151.775 26.2793 151.384 25.9277 150.844C25.5827 150.297 25.4102 149.659 25.4102 148.93C25.4102 147.758 25.778 146.85 26.5137 146.205C27.2559 145.561 28.3105 145.238 29.6777 145.238C29.9837 145.238 30.3027 145.261 30.6348 145.307C30.9733 145.346 31.2272 145.388 31.3965 145.434H35.1367ZM26.6504 157.914C26.6504 158.409 26.8717 158.79 27.3145 159.057C27.7637 159.324 28.3919 159.457 29.1992 159.457C30.4492 159.457 31.3802 159.278 31.9922 158.92C32.6042 158.562 32.9102 158.087 32.9102 157.494C32.9102 157.025 32.7409 156.69 32.4023 156.488C32.0703 156.293 31.4486 156.195 30.5371 156.195H28.7988C28.1413 156.195 27.6172 156.348 27.2266 156.654C26.8424 156.967 26.6504 157.387 26.6504 157.914ZM27.6367 148.93C27.6367 149.607 27.8092 150.128 28.1543 150.492C28.5059 150.857 29.0072 151.039 29.6582 151.039C30.9863 151.039 31.6504 150.329 31.6504 148.91C31.6504 148.207 31.4844 147.667 31.1523 147.289C30.8268 146.905 30.3288 146.713 29.6582 146.713C28.9941 146.713 28.4896 146.902 28.1445 147.279C27.806 147.657 27.6367 148.207 27.6367 148.93ZM43.9062 156.234L43.4473 154.73H43.3691C42.8483 155.388 42.3242 155.837 41.7969 156.078C41.2695 156.312 40.5924 156.43 39.7656 156.43C38.7044 156.43 37.8743 156.143 37.2754 155.57C36.6829 154.997 36.3867 154.187 36.3867 153.139C36.3867 152.025 36.8001 151.186 37.627 150.619C38.4538 150.053 39.7135 149.743 41.4062 149.691L43.2715 149.633V149.057C43.2715 148.367 43.1087 147.852 42.7832 147.514C42.4642 147.169 41.9661 146.996 41.2891 146.996C40.7357 146.996 40.2051 147.077 39.6973 147.24C39.1895 147.403 38.7012 147.595 38.2324 147.816L37.4902 146.176C38.0762 145.87 38.7174 145.639 39.4141 145.482C40.1107 145.32 40.7682 145.238 41.3867 145.238C42.7604 145.238 43.7956 145.538 44.4922 146.137C45.1953 146.736 45.5469 147.676 45.5469 148.959V156.234H43.9062ZM40.4883 154.672C41.3216 154.672 41.9889 154.441 42.4902 153.979C42.998 153.51 43.252 152.855 43.252 152.016V151.078L41.8652 151.137C40.7845 151.176 39.9967 151.358 39.502 151.684C39.0137 152.003 38.7695 152.494 38.7695 153.158C38.7695 153.64 38.9128 154.014 39.1992 154.281C39.4857 154.542 39.9154 154.672 40.4883 154.672ZM58.252 156.234H55.9473V149.594C55.9473 148.76 55.778 148.139 55.4395 147.729C55.1074 147.318 54.5768 147.113 53.8477 147.113C52.8776 147.113 52.168 147.4 51.7188 147.973C51.2695 148.546 51.0449 149.506 51.0449 150.854V156.234H48.75V145.434H50.5469L50.8691 146.85H50.9863C51.3118 146.335 51.7741 145.938 52.373 145.658C52.972 145.378 53.6361 145.238 54.3652 145.238C56.9564 145.238 58.252 146.557 58.252 149.193V156.234ZM63.7402 156.234H61.4453V145.434H63.7402V156.234ZM61.3086 142.572C61.3086 142.162 61.4193 141.846 61.6406 141.625C61.8685 141.404 62.1908 141.293 62.6074 141.293C63.0111 141.293 63.3236 141.404 63.5449 141.625C63.7728 141.846 63.8867 142.162 63.8867 142.572C63.8867 142.963 63.7728 143.272 63.5449 143.5C63.3236 143.721 63.0111 143.832 62.6074 143.832C62.1908 143.832 61.8685 143.721 61.6406 143.5C61.4193 143.272 61.3086 142.963 61.3086 142.572ZM74.248 156.234H66.0547V154.818L71.5137 147.191H66.3867V145.434H74.0918V147.035L68.75 154.477H74.248V156.234ZM83.3594 156.234L82.9004 154.73H82.8223C82.3014 155.388 81.7773 155.837 81.25 156.078C80.7227 156.312 80.0456 156.43 79.2188 156.43C78.1576 156.43 77.3275 156.143 76.7285 155.57C76.1361 154.997 75.8398 154.187 75.8398 153.139C75.8398 152.025 76.2533 151.186 77.0801 150.619C77.9069 150.053 79.1667 149.743 80.8594 149.691L82.7246 149.633V149.057C82.7246 148.367 82.5618 147.852 82.2363 147.514C81.9173 147.169 81.4193 146.996 80.7422 146.996C80.1888 146.996 79.6582 147.077 79.1504 147.24C78.6426 147.403 78.1543 147.595 77.6855 147.816L76.9434 146.176C77.5293 145.87 78.1706 145.639 78.8672 145.482C79.5638 145.32 80.2214 145.238 80.8398 145.238C82.2135 145.238 83.2487 145.538 83.9453 146.137C84.6484 146.736 85 147.676 85 148.959V156.234H83.3594ZM79.9414 154.672C80.7747 154.672 81.4421 154.441 81.9434 153.979C82.4512 153.51 82.7051 152.855 82.7051 152.016V151.078L81.3184 151.137C80.2376 151.176 79.4499 151.358 78.9551 151.684C78.4668 152.003 78.2227 152.494 78.2227 153.158C78.2227 153.64 78.3659 154.014 78.6523 154.281C78.9388 154.542 79.3685 154.672 79.9414 154.672ZM92.2266 154.574C92.7865 154.574 93.3464 154.486 93.9062 154.311V156.039C93.6523 156.15 93.3236 156.241 92.9199 156.312C92.5228 156.391 92.1094 156.43 91.6797 156.43C89.5052 156.43 88.418 155.284 88.418 152.992V147.172H86.9434V146.156L88.5254 145.316L89.3066 143.031H90.7227V145.434H93.7988V147.172H90.7227V152.953C90.7227 153.507 90.8594 153.917 91.1328 154.184C91.4128 154.444 91.7773 154.574 92.2266 154.574ZM98.3691 156.234H96.0742V145.434H98.3691V156.234ZM95.9375 142.572C95.9375 142.162 96.0482 141.846 96.2695 141.625C96.4974 141.404 96.8197 141.293 97.2363 141.293C97.64 141.293 97.9525 141.404 98.1738 141.625C98.4017 141.846 98.5156 142.162 98.5156 142.572C98.5156 142.963 98.4017 143.272 98.1738 143.5C97.9525 143.721 97.64 143.832 97.2363 143.832C96.8197 143.832 96.4974 143.721 96.2695 143.5C96.0482 143.272 95.9375 142.963 95.9375 142.572ZM111.24 150.814C111.24 152.579 110.788 153.956 109.883 154.945C108.978 155.935 107.718 156.43 106.104 156.43C105.094 156.43 104.202 156.202 103.428 155.746C102.653 155.29 102.057 154.636 101.641 153.783C101.224 152.93 101.016 151.941 101.016 150.814C101.016 149.063 101.465 147.696 102.363 146.713C103.262 145.73 104.528 145.238 106.162 145.238C107.725 145.238 108.962 145.743 109.873 146.752C110.785 147.755 111.24 149.109 111.24 150.814ZM103.379 150.814C103.379 153.308 104.3 154.555 106.143 154.555C107.965 154.555 108.877 153.308 108.877 150.814C108.877 148.347 107.959 147.113 106.123 147.113C105.16 147.113 104.46 147.432 104.023 148.07C103.594 148.708 103.379 149.623 103.379 150.814ZM123.389 156.234H121.084V149.594C121.084 148.76 120.915 148.139 120.576 147.729C120.244 147.318 119.714 147.113 118.984 147.113C118.014 147.113 117.305 147.4 116.855 147.973C116.406 148.546 116.182 149.506 116.182 150.854V156.234H113.887V145.434H115.684L116.006 146.85H116.123C116.449 146.335 116.911 145.938 117.51 145.658C118.109 145.378 118.773 145.238 119.502 145.238C122.093 145.238 123.389 146.557 123.389 149.193V156.234ZM133.838 153.158C133.838 154.213 133.454 155.023 132.686 155.59C131.917 156.15 130.817 156.43 129.385 156.43C127.946 156.43 126.79 156.212 125.918 155.775V153.793C127.188 154.379 128.369 154.672 129.463 154.672C130.876 154.672 131.582 154.245 131.582 153.393C131.582 153.119 131.504 152.891 131.348 152.709C131.191 152.527 130.934 152.338 130.576 152.143C130.218 151.947 129.72 151.726 129.082 151.479C127.839 150.997 126.995 150.515 126.553 150.033C126.117 149.551 125.898 148.926 125.898 148.158C125.898 147.234 126.27 146.518 127.012 146.01C127.76 145.495 128.776 145.238 130.059 145.238C131.328 145.238 132.529 145.495 133.662 146.01L132.92 147.738C131.755 147.257 130.775 147.016 129.98 147.016C128.77 147.016 128.164 147.361 128.164 148.051C128.164 148.389 128.32 148.676 128.633 148.91C128.952 149.145 129.642 149.467 130.703 149.877C131.595 150.222 132.243 150.538 132.646 150.824C133.05 151.111 133.35 151.443 133.545 151.82C133.74 152.191 133.838 152.637 133.838 153.158Z" fill="#263238"/>
<g filter="url(#filter0_d)">
<path d="M75.5131 81.5015L67.1199 75.8851V66.083C67.1199 65.2735 66.4909 64.6172 65.7146 64.6172C64.9383 64.6172 64.3093 65.2735 64.3093 66.083V75.8851L55.9161 81.5015C55.2629 81.9385 55.0731 82.8454 55.4921 83.5267C55.7606 83.9631 56.2137 84.2012 56.6761 84.2012C56.936 84.2012 57.1987 84.1261 57.4337 83.969L65.7146 78.4277L73.9954 83.969C74.2303 84.1263 74.493 84.2012 74.7529 84.2012C75.2155 84.2012 75.6686 83.9629 75.937 83.5267C76.3561 82.8454 76.1663 81.9385 75.5131 81.5015Z" fill="#FF5F2A"/>
<path d="M78.2236 45.3702H80.1334C82.215 45.3702 83.9023 43.6102 83.9023 41.439C83.9023 39.2678 82.215 37.5078 80.1334 37.5078H78.2236V45.3702Z" fill="#FFCEBF"/>
<path d="M83.9053 41.4386C83.9053 43.6093 82.2179 45.3693 80.1369 45.3693H78.2275V43.9192C79.8585 43.4891 81.0665 41.9474 81.0665 40.1108C81.0665 39.1128 80.7084 38.2022 80.1202 37.5078H80.1369C81.1774 37.5078 82.1196 37.9489 82.802 38.6586C83.4824 39.3708 83.9053 40.3533 83.9053 41.4386Z" fill="#FFB09E"/>
<path d="M53.5848 45.3702H51.6751C49.5936 45.3702 47.9062 43.6102 47.9062 41.439C47.9062 39.2678 49.5936 37.5078 51.6751 37.5078H53.5848V45.3702Z" fill="#FFCEBF"/>
<path d="M65.9027 58.6775C58.8917 58.6775 53.208 52.749 53.208 45.4361V34.6958L65.3415 27.418L78.5972 34.6958V45.4361C78.5974 52.7492 72.9139 58.6775 65.9027 58.6775Z" fill="#FFCEBF"/>
<path d="M78.6023 34.6959V45.4377C78.6023 52.7487 72.9183 58.6776 65.907 58.6776C65.1931 58.6776 64.4938 58.6164 63.8135 58.4964C69.8282 57.457 74.4152 52.0043 74.4152 45.4377V32.3965L78.6023 34.6959Z" fill="#FFB09E"/>
<path d="M60.8748 46.5487C60.0986 46.5487 59.4697 45.8925 59.4697 45.0831V43.0027C59.4697 42.1933 60.0986 41.5371 60.8748 41.5371C61.651 41.5371 62.2799 42.1933 62.2799 43.0027V45.0831C62.2799 45.8925 61.6508 46.5487 60.8748 46.5487Z" fill="#685E68"/>
<path d="M70.9656 46.5488C70.1895 46.5488 69.5605 45.8926 69.5605 45.0832V43.0028C69.5605 42.1933 70.1895 41.5371 70.9656 41.5371C71.7418 41.5371 72.3707 42.1933 72.3707 43.0028V45.0832C72.3707 45.8926 71.7416 46.5488 70.9656 46.5488Z" fill="#685E68"/>
<path d="M65.9069 25.2905C69.4254 25.2905 72.2777 22.3153 72.2777 18.6453C72.2777 14.9752 69.4254 12 65.9069 12C62.3884 12 59.5361 14.9752 59.5361 18.6453C59.5361 22.3153 62.3884 25.2905 65.9069 25.2905Z" fill="#685E68"/>
<path d="M72.2777 18.6449C72.2777 22.3136 69.4263 25.2898 65.907 25.2898C65.1742 25.2898 64.4687 25.161 63.8135 24.9208C66.3048 24.0188 68.0907 21.5492 68.0907 18.6449C68.0907 15.7406 66.3048 13.2708 63.8135 12.369C64.4687 12.1288 65.1742 12 65.907 12C69.4263 12 72.2777 14.9741 72.2777 18.6449Z" fill="#554E56"/>
<path d="M65.9027 20.6758C58.8917 20.6758 53.208 26.6043 53.208 33.9174V39.5813C53.208 39.5813 63.9388 39.1312 65.9027 30.8037C67.8666 39.1312 78.5974 39.5813 78.5974 39.5813V33.9174C78.5974 26.6041 72.9139 20.6758 65.9027 20.6758Z" fill="#685E68"/>
<path d="M78.6023 33.9156V39.5802C78.6023 39.5802 76.7349 39.5016 74.4152 38.8072V33.9158C74.4152 27.347 69.8282 21.8965 63.8135 20.857C64.4938 20.7368 65.1931 20.6758 65.907 20.6758C72.9183 20.6756 78.6023 26.6023 78.6023 33.9156Z" fill="#554E56"/>
<path d="M107.351 98.3115H109.325C111.476 98.3115 113.221 96.4919 113.221 94.2476C113.221 92.003 111.476 90.1836 109.325 90.1836H107.351V98.3115Z" fill="#FFCEBF"/>
<path d="M113.22 94.2469C113.22 96.4908 111.476 98.3104 109.324 98.3104H107.351V96.8116C109.037 96.3667 110.285 94.7731 110.285 92.8745C110.285 91.8427 109.915 90.9015 109.307 90.1836H109.324C110.4 90.1836 111.374 90.6396 112.079 91.3733C112.783 92.1091 113.22 93.1249 113.22 94.2469Z" fill="#FFB09E"/>
<path d="M81.8528 98.3115H79.8786C77.7267 98.3115 75.9824 96.4919 75.9824 94.2476C75.9824 92.003 77.7269 90.1836 79.8786 90.1836H81.8528V98.3115Z" fill="#FFCEBF"/>
<path d="M94.6008 112.069C87.3529 112.069 81.4775 105.94 81.4775 98.3806V87.2774L94.0207 79.7539L107.724 87.2774V98.3806C107.724 105.94 101.849 112.069 94.6008 112.069Z" fill="#FFCEBF"/>
<path d="M107.722 87.2774V98.3818C107.722 105.94 101.846 112.069 94.5978 112.069C93.8597 112.069 93.137 112.006 92.4336 111.881C98.6515 110.807 103.393 105.17 103.393 98.3818V84.9004L107.722 87.2774Z" fill="#FFB09E"/>
<path d="M89.3895 99.4806C88.6133 99.4806 87.9844 98.8244 87.9844 98.0149V95.8641C87.9844 95.0547 88.6133 94.3984 89.3895 94.3984C90.1656 94.3984 90.7946 95.0547 90.7946 95.8641V98.0149C90.7946 98.8244 90.1654 99.4806 89.3895 99.4806Z" fill="#685E68"/>
<path d="M99.8289 99.4802C99.0527 99.4802 98.4238 98.824 98.4238 98.0147V95.864C98.4238 95.0546 99.0527 94.3984 99.8289 94.3984C100.605 94.3984 101.234 95.0546 101.234 95.864V98.0147C101.234 98.824 100.605 99.4802 99.8289 99.4802Z" fill="#685E68"/>
<path d="M111.439 76.5117C111.86 74.1845 110.075 72.0731 107.806 72.1533C107.792 72.1536 107.779 72.1542 107.765 72.1546C102.912 72.3153 97.4514 71.8114 92.6502 72.6376C92.6133 72.6432 92.5764 72.6493 92.5395 72.6554C92.5181 72.6591 92.4964 72.6618 92.475 72.6657L92.4765 72.6671C86.2391 73.724 81.4766 79.3659 81.4766 86.1705V90.6041C81.4766 90.6041 86.9695 89.6939 90.3183 84.3961C90.3183 84.3961 93.0019 89.9877 107.714 90.6041V86.1705V86.1148C107.712 84.2579 108.353 82.4766 109.465 81.0264C110.556 79.6038 111.149 78.1106 111.439 76.5117Z" fill="#FDB441"/>
<path d="M111.444 76.5104C111.155 78.1099 110.563 79.6028 109.471 81.0252C108.36 82.4759 107.719 84.2564 107.721 86.1135V90.6044C106.147 90.5379 104.71 90.4152 103.4 90.2463V86.1137C103.399 84.2568 104.039 82.476 105.152 81.0254C106.242 79.6029 106.836 78.1101 107.125 76.5106C107.511 74.3899 106.06 72.4464 104.081 72.1827C105.335 72.1927 106.572 72.1949 107.771 72.1546C107.785 72.1546 107.798 72.1526 107.812 72.1526C110.082 72.0719 111.867 74.1845 111.444 76.5104Z" fill="#FEA613"/>
<path d="M49.5732 98.3114H51.5474C53.6992 98.3114 55.4435 96.4918 55.4435 94.2475C55.4435 92.003 53.699 90.1836 51.5474 90.1836H49.5732V98.3114Z" fill="#F6A96C"/>
<path d="M55.4426 94.247C55.4426 96.491 53.6982 98.3107 51.547 98.3107H49.5732V96.8118C51.2592 96.3669 52.5078 94.7732 52.5078 92.8746C52.5078 91.8428 52.1378 90.9015 51.5296 90.1836H51.5468C52.6223 90.1836 53.5963 90.6396 54.3017 91.3733C55.0055 92.1092 55.4426 93.1249 55.4426 94.247Z" fill="#EA9B58"/>
<path d="M24.0735 98.3113H22.0993C19.9474 98.3113 18.2031 96.4917 18.2031 94.2474C18.2031 92.003 19.9476 90.1836 22.0993 90.1836H24.0735V98.3113Z" fill="#F6A96C"/>
<path d="M36.8226 112.069C29.5746 112.069 23.6992 105.94 23.6992 98.3804V87.2774L36.2427 79.7539L49.9462 87.2774V98.3804C49.9462 105.94 44.0706 112.069 36.8226 112.069Z" fill="#F6A96C"/>
<path d="M49.9456 87.2774V98.3819C49.9456 105.94 44.0696 112.069 36.8214 112.069C36.0834 112.069 35.3606 112.006 34.6572 111.882C40.8752 110.807 45.6171 105.17 45.6171 98.3819V84.9004L49.9456 87.2774Z" fill="#EA9B58"/>
<path d="M31.613 99.4803C30.8369 99.4803 30.208 98.8242 30.208 98.0148V95.864C30.208 95.0546 30.8369 94.3984 31.613 94.3984C32.3892 94.3984 33.0181 95.0546 33.0181 95.864V98.0148C33.0181 98.8242 32.389 99.4803 31.613 99.4803Z" fill="#685E68"/>
<path d="M42.0468 99.4803C41.2705 99.4803 40.6416 98.8242 40.6416 98.0148V95.864C40.6416 95.0546 41.2705 94.3984 42.0468 94.3984C42.823 94.3984 43.4519 95.0546 43.4519 95.864V98.0148C43.4519 98.8242 42.823 99.4803 42.0468 99.4803Z" fill="#685E68"/>
<path d="M23.6963 86.0399V96.1785C23.6963 96.1785 27.2285 93.7565 28.8094 87.73H44.8297C46.4108 93.7565 49.9429 96.1785 49.9429 96.1785V86.0399C49.9429 78.4799 44.0673 72.3516 36.8196 72.3516C29.5719 72.3516 23.6963 78.4801 23.6963 86.0399Z" fill="#685E68"/>
<path d="M49.9409 86.0405V96.1794C49.9409 96.1794 46.4614 93.7917 44.8651 87.8565V86.0405C44.8651 79.3853 40.3145 73.8418 34.2793 72.6084C35.0991 72.4389 35.9492 72.3516 36.8173 72.3516C44.0658 72.3516 49.9409 78.48 49.9409 86.0405Z" fill="#554E56"/>
</g>
<path d="M112.151 33.5354L114.671 28.9687C115.333 27.7691 114.944 26.2378 113.803 25.5484C112.662 24.859 111.201 25.2726 110.539 26.4722L108.02 31.0389C107.358 32.2385 107.746 33.7698 108.887 34.4592C110.028 35.1484 111.49 34.7348 112.151 33.5354Z" fill="#2C77E7"/>
<path d="M119.771 41.1578L123.626 37.7632C124.638 36.8716 124.773 35.2908 123.927 34.2326C123.081 33.1743 121.574 33.0393 120.562 33.931L116.707 37.3256C115.694 38.2172 115.56 39.798 116.406 40.8561C117.252 41.9144 118.758 42.0493 119.771 41.1578Z" fill="#2C77E7"/>
<path d="M97.9073 27.9378L98.7899 22.7475C99.0216 21.3841 100.263 20.4714 101.562 20.709C102.861 20.9465 103.726 22.2444 103.494 23.6077L102.611 28.7981C102.379 30.1615 101.138 31.0741 99.8395 30.8365C98.5407 30.5991 97.6756 29.3012 97.9073 27.9378Z" fill="#2C77E7"/>
<defs>
<filter id="filter0_d" x="6.20312" y="0" width="143.018" height="148.069" filterUnits="userSpaceOnUse" color-interpolation-filters="sRGB">
<feFlood flood-opacity="0" result="BackgroundImageFix"/>
<feColorMatrix in="SourceAlpha" type="matrix" values="0 0 0 0 0 0 0 0 0 0 0 0 0 0 0 0 0 0 127 0" result="hardAlpha"/>
<feOffset dx="12" dy="12"/>
<feGaussianBlur stdDeviation="12"/>
<feColorMatrix type="matrix" values="0 0 0 0 0.94 0 0 0 0 0.94 0 0 0 0 0.94 0 0 0 1 0"/>
<feBlend mode="normal" in2="BackgroundImageFix" result="effect1_dropShadow"/>
<feBlend mode="normal" in="SourceGraphic" in2="effect1_dropShadow" result="shape"/>
</filter>
</defs>
</svg>
