<svg width="18" height="18" viewBox="0 0 18 18" fill="none" xmlns="http://www.w3.org/2000/svg">
<path d="M8.16699 4.83415H9.83366V6.50081H8.16699V4.83415ZM8.16699 8.16748H9.83366V13.1675H8.16699V8.16748ZM9.00195 0.25C4.40195 0.25 0.251953 4.4 0.251953 9C0.251953 13.6 4.40195 17.75 9.00195 17.75C13.602 17.75 17.752 13.6 17.752 9C17.752 4.4 13.602 0.25 9.00195 0.25ZM9.00032 15.6675C5.32533 15.6675 2.33366 12.6758 2.33366 9.00081C2.33366 5.32581 5.32533 2.33415 9.00032 2.33415C12.6753 2.33415 15.667 5.32581 15.667 9.00081C15.667 12.6758 12.6753 15.6675 9.00032 15.6675Z" fill="#2C77E7"/>
</svg>
