<svg width="32" height="31" viewBox="0 0 32 31"  xmlns="http://www.w3.org/2000/svg">
<path fill="currentColor" d="M6.29232 14.041H0.458984V30.0827H6.29232V14.041Z" />
<path fill="currentColor" d="M22.334 2.73893C23.2819 1.6306 24.7548 0.916016 26.2715 0.916016C28.9694 0.916016 31.084 3.0306 31.084 5.72852C31.084 9.03893 26.8402 12.8744 22.334 16.9577C17.8277 12.8598 13.584 9.02435 13.584 5.72852C13.584 3.0306 15.6986 0.916016 18.3965 0.916016C19.9132 0.916016 21.3861 1.6306 22.334 2.73893Z" />
<path fill="currentColor" d="M28.1673 22.791H17.959L14.9111 21.7264L15.3923 20.3556L17.959 21.3327H22.0715C23.0194 21.3327 23.7923 20.5598 23.7923 19.6118C23.7923 18.8973 23.3402 18.2556 22.6694 17.9931L12.0819 14.041H9.20898V27.1952L19.4173 30.0827L31.0986 25.7077C31.084 24.1035 29.7861 22.791 28.1673 22.791Z" />
</svg>
