<svg xmlns="http://www.w3.org/2000/svg" viewBox="0 0 2048 683" preserveAspectRatio="xMidYMid slice">
  <rect width="2048" height="683" fill="#1f5bac"/>
  <path d="M-72 750C206 214 671 39 1241 9c330-17 619 22 879 64v-96H-72z" fill="#2d79df"/>
  <path d="M-58 585C268 170 775 42 1399 77c248 14 470 51 649 85v66c-272-45-547-75-833-69C648 171 220 302-58 745z" fill="#3a83e2"/>
  <path d="M-29 709C285 254 773 136 1368 157c252 9 482 41 680 79v89c-277-43-560-69-853-61C645 280 227 412 61 683z" fill="#345c9e"/>
  <path d="M-4 683C295 255 799 146 1408 174c250 11 474 45 640 79v13c-304-48-604-66-896-52C610 240 221 383 8 683z" fill="#c25143"/>
  <path d="M65 683C349 329 792 227 1327 249c272 11 514 43 721 76v358z" fill="#1f5bac"/>
</svg>
